<svg width="174" height="168" viewBox="0 0 174 168" fill="none" xmlns="http://www.w3.org/2000/svg">
<path d="M93.8837 0C94.0472 0.0956731 94.1351 0.264789 94.2399 0.275978C95.7526 0.437521 97.2681 0.572404 98.7815 0.72798C99.0745 0.758094 99.3611 0.849171 99.703 0.923505C97.4798 4.23127 95.2874 7.49651 93.0911 10.7592C92.38 11.8155 92.3693 11.8217 91.3206 11.1195C88.0898 8.95613 84.8652 6.78356 81.6353 4.61879C81.2538 4.36309 81.137 4.15086 81.4608 3.70132C82.3055 2.52868 83.0779 1.30405 83.8564 0.050077C87.1611 8.70128e-07 90.4885 8.67227e-07 93.8837 0Z" fill="#727070"/>
<path d="M0 83.1734C0.152901 82.9885 0.350295 82.8971 0.451976 82.7427C1.80549 80.6871 3.14476 78.6222 4.49116 76.5619C4.56876 76.4431 4.67717 76.3446 4.80381 76.1992C7.331 77.8354 9.85436 79.4692 12.4392 81.1427C11.3854 82.7791 10.3408 84.4062 9.29065 86.0297C8.74305 86.8763 8.17601 87.7104 7.63763 88.5627C7.43636 88.8813 7.31476 88.9533 6.94155 88.7052C4.67922 87.201 2.38723 85.7414 0.0525729 84.2662C7.23685e-07 83.9229 7.22704e-07 83.5803 0 83.1734Z" fill="#B2B2B2"/>
<path d="M0 85.634C1.93525 86.8033 3.8763 88.0314 5.80335 89.281C6.80313 89.9294 6.77913 89.9382 6.1155 90.9451C4.76154 92.9994 3.42282 95.0638 2.04923 97.1678C1.69914 96.9584 1.37148 96.7308 1.01717 96.5576C0.430025 96.2708 0.272597 95.7933 0.278568 95.1854C0.281419 94.8951 0.172529 94.6037 0.0571258 94.348C8.6153e-07 91.4893 8.67244e-07 88.5956 0 85.634Z" fill="#B2B2B2"/>
<path d="M83.4768 0C82.6942 1.27957 81.8438 2.55915 80.9576 3.89268C79.353 2.84544 77.7245 1.78263 75.8942 0.588147C77.0032 0.473898 77.901 0.387771 78.7969 0.284949C79.0413 0.256897 79.2799 0.178643 79.5093 0.061714C80.8013 2.92914e-07 82.1052 2.89076e-07 83.4768 0Z" fill="#727070"/>
<path d="M70.7863 130.894C70.2261 132.296 69.6931 133.648 69.1612 134.998C49.3602 128.415 33.6176 108.242 35.164 83.3115C36.0272 69.3949 41.826 57.6595 52.1409 48.2888C60.2005 40.967 69.7418 36.6328 80.5819 35.436C94.2475 33.9272 106.723 37.2235 117.688 45.5447C127.467 52.9656 133.919 62.7323 136.702 74.7223C139.546 86.975 138.231 98.8804 132.569 110.131C126.435 122.321 116.733 130.576 103.869 135.164C100.611 126.985 97.3712 118.849 94.116 110.676C95.1656 110.211 96.2571 109.788 97.2926 109.255C99.2132 108.268 100.968 107.04 102.611 105.622C105.354 103.256 107.445 100.417 109.012 97.1794C110.233 94.6574 111.015 92.0069 111.309 89.2026C111.767 84.8327 111.139 80.6539 109.371 76.6309C108.284 74.1583 106.804 71.9684 105.02 69.941C102.918 67.5507 100.415 65.713 97.6047 64.2935C94.9325 62.9439 92.1022 62.0519 89.0897 61.8675C87.7045 61.7827 86.3071 61.6486 84.9292 61.742C82.09 61.9347 79.3439 62.5887 76.7224 63.7404C74.5448 64.6972 72.5335 65.927 70.7035 67.4283C68.4246 69.2977 66.5578 71.5439 65.0672 74.0869C63.6127 76.568 62.6238 79.229 62.0949 82.0618C61.6581 84.4015 61.5235 86.7559 61.8765 89.107C62.1206 90.7328 62.4563 92.3535 62.8822 93.9413C63.6044 96.6335 64.8999 99.0733 66.5633 101.294C67.4742 102.511 68.4942 103.66 69.5674 104.737C72.0565 107.236 75.0154 109.029 78.3035 110.288C78.4096 110.329 78.5041 110.4 78.6323 110.473C77.7707 112.707 76.9184 114.918 76.0649 117.129C74.8016 120.401 73.5339 123.672 72.2756 126.945C71.7778 128.241 71.3002 129.544 70.7863 130.894Z" fill="#0AB1AC"/>
<path d="M158.265 56.5131C158.43 56.4651 158.596 56.4172 158.863 56.3706C161.371 57.9648 163.784 59.5451 166.177 61.1553C167.556 62.0834 168.903 63.0598 170.265 64.0144C171.079 64.4613 171.096 65.3242 171.256 66.065C171.735 68.2769 172.201 70.4951 172.556 72.7293C172.847 74.5649 173.039 76.4226 173.157 78.278C173.351 81.3128 173.573 84.3545 173.551 87.3917C173.532 90.1605 173.238 92.9299 173.007 95.6942C172.626 100.252 171.729 104.719 170.575 109.14C169.593 112.903 168.284 116.546 166.823 120.15C166.29 121.466 165.515 122.035 164.192 122.381C158.014 123.997 151.86 125.707 145.706 127.416C144.972 127.62 144.605 127.536 144.177 126.817C141.223 121.854 138.193 116.937 135.216 111.988C135.065 111.737 135.041 111.264 135.175 111.008C137.538 106.519 139.119 101.749 140.013 96.7809C140.519 93.9693 140.69 91.0921 140.913 88.2368C141.029 86.7417 140.928 85.2299 140.939 83.7257C140.941 83.5297 141.032 83.3344 141.075 83.1624C141.075 82.8404 141.075 82.5209 141.073 82.1492C141.071 82.097 141.065 82.0968 141.117 82.0938C141.232 81.9463 141.296 81.8019 141.361 81.661C141.361 81.6645 141.354 81.6632 141.406 81.6602C141.521 81.5127 141.585 81.3683 141.65 81.2274C141.65 81.2308 141.643 81.2296 141.695 81.2266C141.81 81.0791 141.874 80.9347 141.939 80.7938C141.939 80.7972 141.933 80.796 141.984 80.7929C142.1 80.6455 142.163 80.5011 142.228 80.3601C142.229 80.3636 142.222 80.3623 142.272 80.3603C142.406 80.2595 142.49 80.1606 142.585 80.0476C142.596 80.0336 142.652 79.9894 142.686 79.9465C142.748 79.7657 142.777 79.6276 142.806 79.493C142.807 79.4963 142.8 79.4952 142.852 79.4921C142.967 79.3447 143.031 79.2003 143.095 79.0593C143.096 79.0627 143.089 79.0616 143.141 79.0585C143.256 78.9111 143.32 78.7667 143.384 78.6257C143.385 78.6291 143.378 78.628 143.43 78.6249C143.545 78.4775 143.609 78.3331 143.673 78.1921C143.674 78.1955 143.667 78.1944 143.719 78.1913C143.834 78.0438 143.898 77.8995 143.962 77.7585C143.963 77.7618 143.956 77.7607 144.008 77.7577C144.123 77.6102 144.187 77.4658 144.251 77.3248C144.252 77.3282 144.245 77.3269 144.293 77.3261C144.456 77.1797 144.571 77.034 144.687 76.892C144.687 76.8956 144.68 76.8958 144.718 76.8715C144.829 76.7164 144.902 76.5856 144.976 76.4584C144.976 76.462 144.969 76.4626 145.009 76.4331C145.071 76.276 145.095 76.1483 145.119 76.024C145.119 76.0274 145.113 76.0261 145.161 76.0253C145.324 75.8788 145.439 75.7332 145.554 75.5912C145.554 75.5947 145.547 75.595 145.585 75.5707C145.696 75.4156 145.769 75.2848 145.843 75.1576C145.843 75.1611 145.836 75.1614 145.874 75.137C145.985 74.9819 146.058 74.8512 146.132 74.724C146.133 74.7275 146.125 74.7281 146.165 74.6986C146.228 74.5415 146.251 74.4139 146.275 74.2896C146.276 74.2929 146.269 74.2916 146.317 74.2908C146.48 74.1444 146.595 73.9988 146.71 73.8567C146.711 73.8603 146.703 73.8605 146.741 73.8362C146.852 73.6811 146.926 73.5503 146.999 73.4231C147 73.4267 146.993 73.4273 147.032 73.3978C147.095 73.2407 147.118 73.113 147.142 72.9887C147.143 72.9921 147.136 72.991 147.188 72.9879C147.303 72.8405 147.367 72.6961 147.431 72.5551C147.432 72.5585 147.425 72.5574 147.477 72.5543C147.592 72.4069 147.656 72.2625 147.72 72.1215C147.721 72.1249 147.714 72.1238 147.766 72.1207C147.881 71.9732 147.945 71.8289 148.01 71.6879C148.01 71.6913 148.004 71.6903 148.058 71.6854C148.175 71.52 148.237 71.3593 148.308 71.1798C148.335 71.1375 148.357 71.1214 148.442 71.1131C148.576 70.9666 148.654 70.8197 148.732 70.6762C148.733 70.6797 148.726 70.6783 148.778 70.6753C148.893 70.5279 148.957 70.3835 149.021 70.2425C149.022 70.246 149.015 70.2447 149.067 70.2417C149.182 70.0942 149.246 69.9498 149.31 69.8089C149.311 69.8124 149.304 69.8111 149.356 69.8081C149.471 69.6606 149.535 69.5162 149.599 69.3753C149.6 69.3788 149.593 69.3773 149.641 69.3763C149.756 69.2779 149.822 69.1804 149.889 69.0864C149.89 69.0898 149.883 69.0904 149.928 69.0668C150.04 68.8637 150.109 68.6842 150.178 68.5081C150.178 68.5116 150.171 68.5104 150.226 68.5056C150.343 68.3401 150.405 68.1795 150.476 68C150.503 67.9577 150.525 67.9416 150.61 67.9333C150.744 67.7868 150.822 67.6398 150.9 67.4962C150.901 67.4996 150.894 67.4985 150.946 67.4955C151.061 67.348 151.125 67.2037 151.189 67.0627C151.19 67.0661 151.183 67.0649 151.235 67.0619C151.35 66.9144 151.414 66.77 151.479 66.6291C151.479 66.6325 151.472 66.6311 151.52 66.6303C151.683 66.4839 151.798 66.3383 151.914 66.1962C151.914 66.1998 151.907 66.2 151.945 66.1757C152.056 66.0206 152.129 65.8898 152.203 65.7626C152.203 65.7661 152.196 65.7668 152.236 65.7373C152.298 65.5802 152.322 65.4525 152.346 65.3283C152.347 65.3317 152.34 65.3303 152.388 65.3295C152.551 65.183 152.666 65.0374 152.781 64.8954C152.781 64.8989 152.774 64.8992 152.812 64.8749C152.923 64.7198 152.996 64.589 153.07 64.4618C153.07 64.4653 153.063 64.4656 153.101 64.4413C153.212 64.2862 153.285 64.1554 153.359 64.0281C153.359 64.0317 153.352 64.032 153.39 64.0076C153.501 63.8525 153.574 63.7218 153.648 63.5945C153.649 63.5981 153.641 63.5983 153.679 63.574C153.79 63.4189 153.864 63.2881 153.937 63.1609C153.938 63.1645 153.931 63.1648 153.968 63.1398C154.031 63.0292 154.056 62.9437 154.083 62.8076C154.283 62.4343 154.47 62.1027 154.685 61.7906C155.534 60.5594 156.391 59.3344 157.286 58.0893C157.401 57.9842 157.476 57.8968 157.551 57.813C157.551 57.8165 157.544 57.8168 157.582 57.7925C157.693 57.6374 157.766 57.5066 157.84 57.3794C157.84 57.3829 157.833 57.3832 157.871 57.3589C157.982 57.2038 158.055 57.073 158.129 56.9458C158.129 56.9493 158.122 56.95 158.162 56.9205C158.225 56.7634 158.248 56.6357 158.271 56.5112C158.271 56.5144 158.265 56.5131 158.265 56.5131ZM155.591 93.0831C155.826 93.0088 156.061 92.9345 156.399 92.8279C155.903 92.6965 155.585 92.6861 155.355 92.5389C154.289 91.8559 153.248 91.132 152.193 90.4299C151.994 90.2974 151.773 90.1977 151.563 90.0828C151.528 90.1408 151.493 90.1987 151.458 90.2566C152.81 91.1773 154.161 92.0979 155.591 93.0831ZM149.501 88.6068C149.14 88.3691 148.778 88.1313 148.416 87.8936C148.375 87.9515 148.335 88.0095 148.294 88.0674C148.601 88.2894 148.9 88.5235 149.22 88.7241C149.295 88.7708 149.441 88.7032 149.501 88.6068ZM150.656 89.6507C150.713 89.6586 150.77 89.6665 150.827 89.6743C150.827 89.6348 150.827 89.5952 150.826 89.5556C150.769 89.561 150.711 89.5664 150.656 89.6507ZM150.418 89.2961C150.361 89.288 150.304 89.2799 150.247 89.2718C150.247 89.3115 150.247 89.3512 150.248 89.3909C150.305 89.3857 150.363 89.3805 150.418 89.2961ZM149.984 89.007C149.927 88.9989 149.87 88.9908 149.813 88.9827C149.813 89.0224 149.814 89.0622 149.814 89.1019C149.872 89.0967 149.93 89.0914 149.984 89.007ZM148.105 87.7062C148.048 87.6981 147.991 87.69 147.934 87.6819C147.934 87.7216 147.935 87.7613 147.935 87.801C147.993 87.7958 148.05 87.7906 148.105 87.7062ZM147.479 87.4031C147.514 87.4482 147.549 87.4933 147.585 87.5384C147.614 87.5117 147.643 87.4851 147.673 87.4584C147.628 87.4231 147.583 87.3878 147.479 87.4031ZM147.106 87.0662C147.099 87.1209 147.092 87.1756 147.085 87.2303C147.125 87.2313 147.166 87.2324 147.206 87.2334C147.199 87.178 147.192 87.1226 147.106 87.0662ZM146.673 86.7772C146.665 86.8319 146.658 86.8865 146.651 86.9412C146.692 86.9423 146.732 86.9433 146.773 86.9444C146.766 86.889 146.759 86.8336 146.673 86.7772ZM146.228 86.6717C146.273 86.6389 146.319 86.6061 146.365 86.5734C146.336 86.5449 146.307 86.5165 146.279 86.488C146.243 86.5309 146.208 86.5737 146.228 86.6717ZM145.886 86.2038C145.84 86.2366 145.794 86.2693 145.748 86.3021C145.777 86.3307 145.805 86.3594 145.834 86.3881C145.869 86.3453 145.905 86.3026 145.886 86.2038ZM145.503 85.9717C145.446 85.9636 145.389 85.9555 145.332 85.9474C145.333 85.9871 145.333 86.0268 145.334 86.0666C145.391 86.0613 145.449 86.0561 145.503 85.9717ZM151.153 89.8124C151.146 89.8671 151.139 89.9218 151.132 89.9765C151.172 89.9775 151.213 89.9786 151.253 89.9797C151.246 89.9243 151.239 89.8688 151.153 89.8124ZM156.415 92.3631C156.454 92.3385 156.514 92.3215 156.527 92.2868C156.538 92.259 156.493 92.2095 156.473 92.1696C156.452 92.2102 156.431 92.2507 156.415 92.3631ZM164.375 80.3654C164.387 80.4298 164.4 80.4941 164.413 80.5584C164.431 80.5431 164.466 80.5261 164.465 80.5128C164.458 80.4475 164.442 80.3833 164.375 80.3654ZM142.735 84.2617C142.774 84.2407 142.813 84.2196 142.852 84.1985C142.811 84.1782 142.768 84.1382 142.731 84.144C142.704 84.1483 142.686 84.2119 142.735 84.2617ZM142.417 83.9162C142.354 83.8948 142.291 83.8703 142.226 83.8548C142.215 83.8519 142.194 83.8857 142.177 83.9026C142.24 83.9237 142.303 83.9448 142.417 83.9162ZM162.155 83.9797C162.15 83.9148 162.145 83.8499 162.14 83.785C162.113 83.7888 162.085 83.7926 162.058 83.7964C162.072 83.873 162.086 83.9496 162.155 83.9797ZM162.341 83.5463C162.381 83.5217 162.44 83.5047 162.453 83.47C162.464 83.4422 162.419 83.3927 162.399 83.3528C162.378 83.3934 162.357 83.4339 162.341 83.5463ZM162.733 83.1125C162.728 83.0476 162.723 82.9827 162.718 82.9178C162.691 82.9216 162.664 82.9254 162.636 82.9292C162.65 83.0058 162.664 83.0823 162.733 83.1125ZM162.913 82.6097C162.934 82.6484 162.954 82.6872 162.975 82.7259C162.996 82.6855 163.036 82.6423 163.031 82.6057C163.027 82.579 162.963 82.5609 162.913 82.6097ZM163.218 82.0999C163.231 82.1642 163.244 82.2285 163.257 82.2929C163.275 82.2776 163.31 82.2605 163.308 82.2472C163.302 82.182 163.285 82.1178 163.218 82.0999ZM163.507 81.6663C163.52 81.7306 163.533 81.7949 163.546 81.8593C163.564 81.8439 163.599 81.8269 163.597 81.8136C163.591 81.7484 163.574 81.6841 163.507 81.6663ZM163.781 81.3088C163.801 81.3476 163.822 81.3863 163.842 81.4251C163.863 81.3847 163.904 81.3415 163.898 81.3049C163.895 81.2781 163.83 81.2601 163.781 81.3088ZM164.075 80.9446C164.115 80.92 164.175 80.9031 164.188 80.8683C164.199 80.8405 164.154 80.791 164.133 80.7511C164.112 80.7917 164.091 80.8322 164.075 80.9446ZM158.397 89.6167C158.392 89.5518 158.387 89.4869 158.382 89.422C158.354 89.4258 158.327 89.4296 158.3 89.4334C158.314 89.51 158.328 89.5865 158.397 89.6167ZM144.826 85.691C144.891 85.6859 144.956 85.6809 145.021 85.6758C145.017 85.6487 145.014 85.6215 145.01 85.5944C144.933 85.6084 144.857 85.6224 144.826 85.691ZM158.694 89.0377C158.655 89.0623 158.597 89.0796 158.584 89.1139C158.573 89.142 158.617 89.1905 158.636 89.2299C158.658 89.1899 158.68 89.1498 158.694 89.0377ZM158.872 88.7497C158.912 88.725 158.971 88.7081 158.985 88.6734C158.995 88.6455 158.95 88.5961 158.93 88.5562C158.909 88.5967 158.888 88.6372 158.872 88.7497ZM159.272 88.1705C159.233 88.1951 159.175 88.2123 159.162 88.2466C159.151 88.2748 159.195 88.3232 159.215 88.3627C159.236 88.3226 159.258 88.2826 159.272 88.1705ZM159.569 87.8056C159.548 87.7665 159.527 87.7275 159.506 87.6885C159.486 87.7292 159.446 87.773 159.451 87.8096C159.456 87.8368 159.519 87.8545 159.569 87.8056ZM159.802 87.2563C159.78 87.3196 159.756 87.3822 159.74 87.4469C159.738 87.4588 159.771 87.4795 159.788 87.4962C159.809 87.4334 159.83 87.3706 159.802 87.2563ZM160.139 86.8696C160.1 86.8943 160.042 86.9115 160.029 86.9458C160.019 86.9739 160.062 87.0224 160.082 87.0619C160.104 87.0218 160.125 86.9817 160.139 86.8696ZM160.312 86.5122C160.332 86.5509 160.353 86.5897 160.373 86.6284C160.394 86.5881 160.435 86.5449 160.429 86.5082C160.426 86.4815 160.361 86.4634 160.312 86.5122ZM160.669 85.9554C160.648 86.0187 160.623 86.0813 160.608 86.146C160.605 86.158 160.639 86.1787 160.656 86.1954C160.677 86.1326 160.698 86.0697 160.669 85.9554ZM160.958 85.5218C160.937 85.5851 160.912 85.6477 160.897 85.7124C160.894 85.7244 160.928 85.7451 160.945 85.7618C160.966 85.6989 160.987 85.6361 160.958 85.5218ZM144.393 85.2989C144.417 85.3385 144.434 85.398 144.469 85.4115C144.497 85.4223 144.546 85.3772 144.586 85.3569C144.546 85.3358 144.505 85.3147 144.393 85.2989ZM161.234 85.3271C161.257 85.2528 161.281 85.1786 161.304 85.1043C161.278 85.0973 161.251 85.0903 161.225 85.0833C161.211 85.1477 161.197 85.2121 161.234 85.3271ZM143.959 85.1128C144.024 85.1078 144.089 85.1027 144.154 85.0976C144.15 85.0705 144.146 85.0434 144.143 85.0163C144.066 85.0303 143.989 85.0443 143.959 85.1128ZM143.718 84.7835C143.655 84.762 143.592 84.7375 143.527 84.722C143.515 84.7191 143.495 84.753 143.478 84.7699C143.541 84.791 143.604 84.8121 143.718 84.7835ZM158.005 90.0505C158.044 90.0259 158.104 90.0089 158.117 89.9742C158.128 89.9464 158.083 89.8969 158.063 89.857C158.042 89.8976 158.021 89.9381 158.005 90.0505ZM161.593 84.7703C161.572 84.7312 161.551 84.6922 161.53 84.6532C161.509 84.6939 161.469 84.7377 161.475 84.7743C161.479 84.8015 161.543 84.8192 161.593 84.7703ZM161.874 84.268C161.835 84.2926 161.776 84.3098 161.764 84.3441C161.753 84.3722 161.797 84.4207 161.816 84.4602C161.838 84.4201 161.86 84.3801 161.874 84.268ZM143.284 84.4944C143.221 84.473 143.158 84.4484 143.094 84.4329C143.082 84.4301 143.061 84.4639 143.044 84.4808C143.107 84.5019 143.17 84.523 143.284 84.4944ZM156.75 91.9939C156.76 91.9573 156.769 91.9207 156.778 91.8841C156.755 91.9081 156.732 91.9322 156.75 91.9939ZM157.771 90.4014C157.78 90.365 157.789 90.3286 157.798 90.2921C157.777 90.3154 157.755 90.3387 157.771 90.4014ZM164.7 80.1418C164.709 80.1052 164.718 80.0686 164.728 80.032C164.705 80.056 164.682 80.0801 164.7 80.1418ZM141.968 83.5854C141.942 83.6038 141.916 83.6222 141.889 83.6406C141.927 83.637 141.964 83.6335 141.968 83.5854Z" fill="#2A2B33"/>
<path d="M117.118 167.748C117.017 167.792 116.95 167.799 116.833 167.795C115.918 165.601 115.048 163.419 114.189 161.234C112.382 156.638 110.578 152.041 108.778 147.443C107.581 144.385 106.398 141.321 105.193 138.266C105.039 137.876 105.134 137.735 105.509 137.572C107.49 136.712 109.492 135.889 111.419 134.918C114.961 133.132 118.268 130.962 121.29 128.387C122.896 127.019 124.511 125.643 125.966 124.122C128.602 121.364 130.949 118.363 132.898 115.069C132.955 114.972 133.027 114.884 133.161 114.694C133.817 115.756 134.431 116.742 135.037 117.733C137.399 121.599 139.759 125.467 142.12 129.334C142.42 129.825 142.732 130.31 143.007 130.815C143.199 131.168 143.394 131.247 143.813 131.131C147.433 130.128 151.065 129.163 154.691 128.178C157.623 127.381 160.552 126.57 163.485 125.772C163.617 125.737 163.767 125.768 164.036 125.768C163.486 126.874 163.036 127.955 162.437 128.946C160.973 131.366 159.53 133.807 157.911 136.122C156.336 138.374 154.623 140.539 152.842 142.633C151.071 144.715 149.216 146.74 147.261 148.648C144.035 151.796 140.559 154.657 136.877 157.269C133.149 159.913 129.247 162.266 125.141 164.256C122.532 165.52 119.819 166.568 117.118 167.748Z" fill="#1B1D2A"/>
<path d="M117.378 28.7535C117.234 28.6365 117.09 28.5195 116.919 28.3804C119.617 24.3552 122.299 20.352 125.003 16.3181C128.712 18.7893 132.394 21.2386 136.071 23.6954C136.722 24.1306 137.353 24.5969 137.975 25.1142C137.953 25.2375 137.949 25.2955 137.946 25.3536C137.997 25.3016 138.049 25.2496 138.1 25.1977C138.235 25.1803 138.371 25.1629 138.564 25.1919C139.926 26.1225 141.23 27.0069 142.571 27.9071C142.674 27.9635 142.741 28.0042 142.807 28.0429C142.805 28.0409 142.801 28.0379 142.821 28.0792C142.975 28.1917 143.109 28.2629 143.241 28.332C143.239 28.33 143.235 28.327 143.255 28.3683C143.408 28.4808 143.542 28.5519 143.675 28.6211C143.673 28.6192 143.668 28.6164 143.694 28.6609C143.85 28.7252 143.981 28.7451 144.11 28.7636C144.108 28.7622 144.105 28.7582 144.091 28.8071C144.233 28.9712 144.388 29.0863 144.542 29.1993C144.54 29.1972 144.536 29.1942 144.555 29.2355C144.709 29.348 144.843 29.4192 144.975 29.4883C144.974 29.4863 144.969 29.4833 144.989 29.5246C145.143 29.6371 145.277 29.7082 145.409 29.7774C145.407 29.7754 145.403 29.7724 145.423 29.8137C145.576 29.9261 145.71 29.9973 145.843 30.0665C145.841 30.0645 145.837 30.0614 145.856 30.1027C146.01 30.2152 146.144 30.2864 146.276 30.3556C146.275 30.3535 146.27 30.3505 146.29 30.3918C146.444 30.5043 146.578 30.5755 146.71 30.6447C146.708 30.6427 146.704 30.64 146.723 30.6799C146.825 30.7372 146.908 30.7547 146.998 30.8234C148.44 31.8568 149.875 32.8389 151.311 33.8209C150.715 34.7833 150.147 35.7642 149.518 36.7045C147.587 39.5911 145.621 42.454 143.701 45.3475C143.397 45.8058 143.183 45.8451 142.745 45.5524C141.464 44.6946 140.157 43.8745 138.809 43.0559C138.758 43.0722 138.762 43.0762 138.775 43.0262C138.68 42.9104 138.574 42.8447 138.469 42.7809C138.47 42.7829 138.475 42.7856 138.457 42.7411C138.304 42.6277 138.169 42.5589 138.035 42.4919C138.037 42.4938 138.041 42.4965 138.024 42.452C137.871 42.3386 137.735 42.2698 137.601 42.2028C137.603 42.2047 137.608 42.2074 137.59 42.1629C137.437 42.0496 137.301 41.9807 137.168 41.9137C137.17 41.9156 137.174 41.9183 137.156 41.8738C137.003 41.7605 136.868 41.6916 136.734 41.6247C136.736 41.6265 136.74 41.6293 136.723 41.5848C136.57 41.4714 136.434 41.4026 136.3 41.3356C136.302 41.3375 136.306 41.3405 136.306 41.3405C135.289 40.6156 134.274 39.8884 133.255 39.1665C132.252 38.4562 131.251 37.7425 130.234 37.054C130.092 36.9579 129.858 36.9969 129.601 36.9215C129.433 36.8139 129.332 36.758 129.209 36.6608C129.057 36.5504 128.926 36.4813 128.774 36.3712C128.623 36.2614 128.493 36.1927 128.342 36.0824C128.159 35.9595 127.998 35.8782 127.818 35.7551C127.699 35.6576 127.597 35.6017 127.475 35.5045C127.323 35.3941 127.192 35.325 127.04 35.2149C126.889 35.1051 126.758 35.0364 126.607 34.9263C126.455 34.8159 126.324 34.7469 126.173 34.6367C126.022 34.5269 125.891 34.4582 125.74 34.3482C125.588 34.2378 125.457 34.1687 125.305 34.0585C125.154 33.9485 125.023 33.8795 124.872 33.7695C124.721 33.6597 124.59 33.591 124.439 33.481C124.288 33.3709 124.157 33.3021 124.006 33.1919C123.854 33.0818 123.723 33.013 123.572 32.9026C123.389 32.7797 123.228 32.6983 123.049 32.5753C122.929 32.4778 122.827 32.4219 122.703 32.3233C122.563 32.2227 122.445 32.1647 122.328 32.1068C122.306 32.1528 122.284 32.1988 122.262 32.2448C122.392 32.3048 122.522 32.3648 122.671 32.4664C122.79 32.564 122.892 32.62 123.015 32.7174C123.197 32.8403 123.358 32.9216 123.538 33.045C123.689 33.1553 123.821 33.2236 123.972 33.3341C124.123 33.4445 124.255 33.5129 124.408 33.6248C124.563 33.7409 124.699 33.8134 124.851 33.9304C125.001 34.0416 125.135 34.1086 125.283 34.2183C125.428 34.3236 125.559 34.3861 125.709 34.4921C125.864 34.6081 126 34.6807 126.15 34.7961C126.295 34.9016 126.426 34.9641 126.576 35.0702C126.731 35.1863 126.867 35.2588 127.017 35.3742C127.162 35.4796 127.292 35.5421 127.441 35.6463C127.56 35.7439 127.662 35.7998 127.785 35.8973C127.967 36.0202 128.129 36.1016 128.31 36.2265C128.466 36.3426 128.601 36.4151 128.752 36.5305C128.897 36.6359 129.027 36.6984 129.175 36.8026C129.295 36.9002 129.396 36.9561 129.498 37.012C129.5 37.1789 129.571 37.391 129.495 37.5061C127.503 40.5199 125.496 43.5238 123.46 46.5768C119.677 43.0082 115.379 40.2582 110.831 37.8199C112.215 35.7517 113.564 33.7403 114.908 31.7265C115.463 30.8953 115.995 30.048 116.572 29.2326C116.712 29.035 116.989 28.9348 117.272 28.8423C117.491 28.9992 117.641 29.1035 117.815 29.2458C117.967 29.3548 118.096 29.4259 118.251 29.5356C118.391 29.6144 118.505 29.6546 118.634 29.7377C118.797 29.8788 118.945 29.9769 119.116 30.113C119.268 30.222 119.397 30.2931 119.552 30.4028C119.692 30.4816 119.806 30.5219 119.935 30.605C120.098 30.746 120.246 30.8442 120.416 30.9801C120.568 31.0884 120.696 31.159 120.848 31.2678C121.001 31.3775 121.131 31.449 121.284 31.5584C121.436 31.6674 121.565 31.7385 121.721 31.8485C121.848 31.8972 121.949 31.9069 122.049 31.9166C122.052 31.8918 122.055 31.8671 122.058 31.8424C121.956 31.8062 121.854 31.7701 121.735 31.6896C121.585 31.5783 121.452 31.5115 121.303 31.4017C121.158 31.2964 121.028 31.234 120.878 31.128C120.722 31.0119 120.587 30.9394 120.436 30.8239C120.273 30.6827 120.126 30.5844 119.952 30.4475C119.812 30.3687 119.698 30.3284 119.567 30.2439C119.417 30.1328 119.283 30.066 119.135 29.9563C118.973 29.8152 118.825 29.717 118.651 29.5803C118.512 29.5015 118.397 29.4612 118.266 29.3766C118.116 29.2655 117.983 29.1988 117.834 29.0892C117.672 28.9488 117.525 28.8512 117.378 28.7535Z" fill="#585857"/>
<path d="M157.245 58.1073C156.391 59.3346 155.534 60.5596 154.685 61.7907C154.47 62.1029 154.283 62.4345 154.043 62.8328C153.978 62.994 153.954 63.0795 153.931 63.1649C153.931 63.1649 153.938 63.1646 153.884 63.1586C153.768 63.3012 153.705 63.4499 153.641 63.5985C153.641 63.5985 153.649 63.5982 153.595 63.5922C153.479 63.7348 153.415 63.8835 153.352 64.0321C153.352 64.0321 153.36 64.0318 153.306 64.0258C153.189 64.1684 153.126 64.3171 153.063 64.4657C153.063 64.4657 153.07 64.4655 153.017 64.4594C152.9 64.602 152.837 64.7507 152.774 64.8993C152.774 64.8993 152.781 64.8991 152.732 64.8903C152.569 65.0311 152.454 65.1808 152.34 65.3304C152.34 65.3304 152.347 65.3318 152.304 65.3559C152.24 65.509 152.218 65.638 152.196 65.7669C152.196 65.7669 152.203 65.7663 152.15 65.7603C152.033 65.9029 151.97 66.0515 151.907 66.2002C151.907 66.2002 151.914 66.1999 151.865 66.1911C151.701 66.332 151.587 66.4816 151.472 66.6313C151.472 66.6313 151.479 66.6326 151.439 66.6513C151.327 66.8017 151.255 66.9334 151.183 67.0651C151.183 67.0651 151.19 67.0662 151.15 67.0849C151.038 67.2353 150.966 67.367 150.894 67.4987C150.894 67.4987 150.901 67.4998 150.857 67.5165C150.726 67.6665 150.639 67.7997 150.553 67.9329C150.525 67.9417 150.503 67.9579 150.439 68.0347C150.318 68.2289 150.245 68.3697 150.171 68.5105C150.171 68.5105 150.178 68.5117 150.132 68.5303C150.018 68.7294 149.951 68.91 149.883 69.0905C149.883 69.0905 149.89 69.09 149.84 69.082C149.724 69.1752 149.659 69.2763 149.593 69.3775C149.593 69.3775 149.6 69.379 149.557 69.395C149.443 69.5445 149.374 69.6779 149.304 69.8113C149.304 69.8113 149.311 69.8126 149.267 69.8286C149.154 69.9781 149.085 70.1115 149.015 70.2449C149.015 70.2449 149.022 70.2462 148.978 70.2622C148.865 70.4117 148.796 70.5451 148.726 70.6785C148.726 70.6785 148.733 70.6798 148.689 70.6965C148.558 70.8463 148.471 70.9795 148.385 71.1127C148.357 71.1216 148.335 71.1377 148.274 71.2158C148.155 71.4105 148.079 71.5504 148.004 71.6904C148.004 71.6904 148.01 71.6914 147.97 71.7101C147.858 71.8605 147.786 71.9922 147.714 72.1239C147.714 72.1239 147.721 72.125 147.681 72.1438C147.569 72.2942 147.497 72.4258 147.425 72.5575C147.425 72.5575 147.432 72.5586 147.392 72.5774C147.28 72.7278 147.208 72.8595 147.136 72.9911C147.136 72.9911 147.143 72.9923 147.1 73.0164C147.036 73.1695 147.014 73.2985 146.993 73.4274C146.993 73.4274 147 73.4268 146.946 73.4208C146.83 73.5634 146.767 73.712 146.703 73.8607C146.703 73.8607 146.711 73.8604 146.662 73.8516C146.498 73.9925 146.383 74.1421 146.269 74.2918C146.269 74.2918 146.276 74.2931 146.233 74.3173C146.169 74.4704 146.147 74.5993 146.125 74.7283C146.125 74.7283 146.133 74.7277 146.079 74.7216C145.962 74.8642 145.899 75.0129 145.836 75.1615C145.836 75.1615 145.843 75.1613 145.79 75.1552C145.673 75.2978 145.61 75.4465 145.547 75.5951C145.547 75.5951 145.554 75.5949 145.505 75.5861C145.342 75.7269 145.227 75.8766 145.113 76.0262C145.113 76.0262 145.119 76.0275 145.077 76.0517C145.013 76.2048 144.991 76.3338 144.969 76.4627C144.969 76.4627 144.976 76.4621 144.923 76.4561C144.806 76.5987 144.743 76.7473 144.68 76.896C144.68 76.896 144.687 76.8957 144.638 76.8869C144.474 77.0278 144.36 77.1774 144.245 77.3271C144.245 77.3271 144.252 77.3284 144.212 77.3471C144.1 77.4975 144.028 77.6292 143.956 77.7609C143.956 77.7609 143.963 77.762 143.923 77.7807C143.811 77.9311 143.739 78.0628 143.667 78.1945C143.667 78.1945 143.674 78.1956 143.634 78.2143C143.522 78.3648 143.45 78.4964 143.378 78.6281C143.378 78.6281 143.385 78.6292 143.345 78.648C143.233 78.7984 143.161 78.9301 143.089 79.0617C143.089 79.0617 143.096 79.0628 143.056 79.0816C142.944 79.232 142.872 79.3637 142.8 79.4954C142.8 79.4954 142.807 79.4965 142.761 79.5252C142.695 79.6991 142.673 79.8443 142.652 79.9895C142.652 79.9895 142.596 80.0338 142.529 80.0404C142.382 80.1522 142.302 80.2573 142.222 80.3624C142.222 80.3624 142.229 80.3637 142.185 80.3799C142.072 80.5293 142.002 80.6627 141.933 80.7962C141.933 80.7962 141.94 80.7974 141.896 80.8135C141.783 80.963 141.713 81.0964 141.643 81.2298C141.643 81.2298 141.65 81.231 141.607 81.2471C141.493 81.3966 141.424 81.53 141.354 81.6634C141.354 81.6634 141.361 81.6646 141.318 81.6807C141.204 81.8302 141.135 81.9636 141.065 82.097C141.065 82.097 141.071 82.0971 141.071 82.0941C140.973 82.0279 140.803 81.9787 140.788 81.8996C140.485 80.3367 140.242 78.7615 139.906 77.2063C138.822 72.1936 137.629 67.2115 135.418 62.5427C135.236 62.1567 135.078 61.7493 134.837 61.4022C134.36 60.7174 134.398 60.1608 134.887 59.4399C137.75 55.2161 140.554 50.9523 143.379 46.7025C143.443 46.6054 143.517 46.5145 143.622 46.373C145.427 47.5679 147.217 48.7418 148.996 49.9322C151.932 51.8964 154.862 53.8679 157.786 55.8487C157.983 55.9819 158.11 56.2182 158.267 56.4599C158.265 56.5132 158.271 56.5146 158.229 56.5389C158.166 56.6922 158.144 56.8212 158.122 56.9501C158.122 56.9501 158.129 56.9495 158.076 56.9435C157.959 57.0861 157.896 57.2347 157.833 57.3834C157.833 57.3834 157.84 57.3831 157.787 57.3771C157.67 57.5197 157.607 57.6683 157.544 57.817C157.544 57.817 157.551 57.8167 157.501 57.8084C157.382 57.9025 157.314 58.0049 157.245 58.1073Z" fill="#484646"/>
<path d="M159.156 39.0201C160.174 39.4629 160.633 40.4155 161.131 41.2926C162.167 43.1177 163.125 44.9874 164.134 46.828C164.344 47.2106 164.341 47.5116 164.095 47.878C162.381 50.4265 160.685 52.9869 158.979 55.5407C158.887 55.6776 158.759 55.7899 158.602 55.9655C153.677 52.6602 148.764 49.3629 143.77 46.0118C146.412 42.0921 149.039 38.1934 151.754 34.2734C151.87 34.2513 151.899 34.2504 151.972 34.2514C152.076 34.2492 152.135 34.2452 152.201 34.2924C152.41 34.5339 152.59 34.756 152.817 34.909C154.041 35.7348 155.273 36.551 156.511 37.3554C157.385 37.9227 158.274 38.4661 159.156 39.0201Z" fill="#585857"/>
<path d="M138.756 43.0707C139.777 43.796 140.799 44.5237 141.823 45.2496C142.248 45.5507 142.676 45.8478 143.133 46.1681C140.14 50.7779 137.022 55.2296 134.081 59.8472C132.931 58.0621 131.814 56.3305 130.708 54.5921C130.696 54.5737 130.823 54.4669 130.782 54.5104C129.77 53.3606 128.783 52.2148 127.769 51.0924C126.646 49.8488 125.524 48.6028 124.35 47.4077C123.927 46.976 123.837 46.6783 124.194 46.1542C126.15 43.2806 128.073 40.384 130.065 37.4087C130.654 37.7852 131.249 38.154 131.832 38.5401C133.143 39.4077 134.446 40.2855 135.756 41.154C135.892 41.2439 136.051 41.2985 136.253 41.3551C136.306 41.3407 136.302 41.3377 136.291 41.3901C136.434 41.5048 136.587 41.5672 136.74 41.6295C136.74 41.6295 136.736 41.6268 136.725 41.6792C136.867 41.7939 137.021 41.8562 137.174 41.9186C137.174 41.9186 137.17 41.9158 137.159 41.9682C137.301 42.083 137.454 42.1453 137.608 42.2076C137.608 42.2076 137.603 42.2049 137.592 42.2573C137.734 42.3721 137.888 42.4344 138.041 42.4967C138.041 42.4967 138.037 42.494 138.026 42.5464C138.168 42.6611 138.321 42.7235 138.475 42.7858C138.475 42.7858 138.471 42.7831 138.456 42.8312C138.549 42.9451 138.656 43.0108 138.762 43.0764C138.762 43.0764 138.758 43.0724 138.756 43.0707Z" fill="#585857"/>
<path d="M104.941 20.5307C104.862 20.3864 104.782 20.2421 104.674 20.0445C107.325 16.0757 110.005 12.0621 112.733 7.979C116.733 10.6623 120.647 13.2876 124.665 15.983C124.103 16.8266 123.562 17.6454 123.015 18.4602C120.951 21.5319 118.876 24.5959 116.835 27.6828C116.621 28.0074 116.465 28.0533 116.118 27.8964C116.067 27.8948 116.072 27.8985 116.056 27.8531C115.903 27.739 115.766 27.6702 115.631 27.6037C115.634 27.6059 115.639 27.6094 115.622 27.564C115.469 27.4499 115.332 27.3812 115.198 27.3146C115.2 27.3168 115.205 27.3203 115.189 27.2749C115.035 27.1608 114.899 27.0921 114.764 27.0255C114.766 27.0277 114.771 27.0311 114.754 26.9844C113.158 25.8604 111.589 24.7699 109.999 23.7103C108.806 22.9151 107.587 22.1596 106.381 21.3886C106.383 21.3908 106.388 21.3943 106.372 21.3489C106.218 21.2348 106.082 21.166 105.947 21.0995C105.949 21.1017 105.954 21.1052 105.938 21.0598C105.785 20.9457 105.648 20.877 105.513 20.8103C105.516 20.8124 105.521 20.8157 105.501 20.767C105.298 20.6528 105.114 20.5874 104.933 20.524C104.936 20.5259 104.941 20.5307 104.941 20.5307Z" fill="#727070"/>
<path d="M105.045 17.8894C104.648 18.4835 104.286 19.0387 103.898 19.635C101.082 17.761 98.2859 15.9017 95.4919 14.0397C94.8798 13.6317 94.2984 13.1704 93.6584 12.8135C93.0884 12.4957 92.994 12.2152 93.3775 11.6516C95.6869 8.25822 97.9832 4.85548 100.24 1.4273C100.739 0.670058 101.313 1.18053 101.816 1.21543C102.959 1.29472 103.739 2.16923 104.639 2.75478C107.063 4.33183 109.458 5.95395 111.956 7.61928C109.649 11.0524 107.365 14.4515 105.045 17.8894Z" fill="#727070"/>
<path d="M116.066 27.8922C116.458 28.3447 116.224 28.7006 115.941 29.1188C114.041 31.92 112.167 34.7383 110.334 37.4781C108.241 36.6469 106.227 35.8333 104.2 35.0502C103.629 34.8294 103.03 34.6644 102.431 34.5321C100.366 34.0758 98.8889 32.5928 97.0618 31.5358C97.188 31.3341 97.2903 31.1613 97.4017 30.9944C99.6755 27.587 101.946 24.1775 104.238 20.7823C104.342 20.6293 104.637 20.6064 104.892 20.5269C104.941 20.5307 104.936 20.5259 104.953 20.5727C105.153 20.685 105.337 20.7503 105.521 20.8157C105.521 20.8157 105.516 20.8125 105.494 20.8652C105.634 20.9804 105.794 21.0428 105.954 21.1052C105.954 21.1052 105.949 21.1017 105.928 21.1543C106.067 21.2694 106.228 21.3319 106.388 21.3943C106.388 21.3943 106.383 21.3908 106.357 21.4386C106.448 21.6002 106.551 21.7356 106.684 21.8245C109.012 23.3777 111.341 24.93 113.678 26.4685C114.019 26.6926 114.406 26.8454 114.771 27.0311C114.771 27.0311 114.766 27.0277 114.745 27.0804C114.884 27.1955 115.045 27.2579 115.205 27.3203C115.205 27.3203 115.2 27.3168 115.179 27.3695C115.318 27.4846 115.478 27.547 115.639 27.6094C115.639 27.6094 115.634 27.6059 115.612 27.6585C115.751 27.7736 115.912 27.8361 116.072 27.8985C116.072 27.8985 116.067 27.8948 116.066 27.8922Z" fill="#727070"/>
<path d="M76.7511 10.9851C78.1533 8.86636 79.5416 6.79856 81.0051 4.6189C84.6824 7.09062 88.3637 9.56496 92.1401 12.1032C89.6889 15.784 87.2509 19.445 84.7698 23.1706C81.0617 20.6988 77.3841 18.2474 73.5974 15.7233C74.6608 14.1358 75.699 12.5859 76.7511 10.9851Z" fill="#727070"/>
<path d="M99.6264 17.1646C100.984 18.0826 102.304 18.9638 103.695 19.8924C103.019 20.9294 102.37 21.9401 101.705 22.9407C100.078 25.3912 98.4383 27.8333 96.8178 30.2881C96.5003 30.769 96.2506 30.8983 95.6973 30.519C92.3131 28.1987 88.8976 25.9238 85.3735 23.5536C87.827 19.9043 90.2888 16.2429 92.7726 12.5486C95.0652 14.0888 97.3268 15.6083 99.6264 17.1646Z" fill="#727070"/>
<path d="M67.3854 27.7123C66.4575 27.1433 66.4511 27.1218 67.0069 26.2996C69.1982 23.0584 71.3905 19.8178 73.6452 16.4841C77.0714 18.7657 80.5108 21.0561 84.0612 23.4204C83.7965 23.8366 83.5431 24.2477 83.2775 24.6507C81.5936 27.205 79.8958 29.7503 78.2317 32.3175C77.9322 32.7796 77.5717 32.9428 77.0539 32.9652C76.4066 32.9931 75.8295 33.3886 75.1138 32.8891C72.586 31.125 69.993 29.4545 67.3854 27.7123Z" fill="#727070"/>
<path d="M57.2863 21.2025C56.6103 20.7582 55.9783 20.344 55.2997 19.8994C57.6703 16.2699 59.999 12.7044 62.3719 9.07129C63.6958 9.92694 65.0003 10.7671 66.3017 11.612C68.2104 12.851 70.1141 14.0977 72.0267 15.3307C72.3574 15.5439 72.3964 15.7372 72.1749 16.0729C70.5298 18.5662 68.9006 21.0701 67.2673 23.5712C66.6453 24.5237 66.0258 25.4778 65.3686 26.4874C62.6769 24.7278 60.0035 22.9802 57.2863 21.2025Z" fill="#727070"/>
<path d="M56.9985 22.2172C59.5971 23.9035 62.1517 25.5599 64.7791 27.2636C63.9944 28.4363 63.2137 29.583 62.4538 30.7433C61.096 32.8168 59.7348 34.8886 58.4122 36.9846C58.1101 37.4633 57.8805 37.4391 57.4621 37.1642C54.3251 35.1034 51.176 33.0609 47.944 30.9562C48.5373 30.0314 49.1236 29.1044 49.7231 28.186C51.2589 25.8332 52.8113 23.491 54.3294 21.1268C54.5831 20.7317 54.7631 20.6618 55.143 20.9456C55.7289 21.3835 56.3489 21.7758 56.9985 22.2172Z" fill="#858686"/>
<path d="M46.6868 15.4656C48.9553 16.9232 51.1724 18.3686 53.388 19.8162C53.4669 19.8677 53.5318 19.9406 53.6427 20.0383C51.4334 23.4403 49.2286 26.8355 46.9821 30.295C43.5868 28.0912 40.2447 25.922 36.8539 23.7212C38.3629 21.4006 39.8383 19.1369 41.3078 16.8694C41.9501 15.8783 42.5922 14.8866 43.2091 13.8797C43.3999 13.5682 43.5662 13.4063 43.919 13.6441C44.8211 14.2522 45.7293 14.8512 46.6868 15.4656Z" fill="#858686"/>
<path d="M69.1849 12.6181C67.0154 11.2041 64.8901 9.81958 62.6533 8.36243C62.9119 7.95814 63.1696 7.54878 63.4337 7.14358C64.2366 5.91168 65.1226 4.72504 65.8197 3.43614C66.342 2.47054 67.0939 2.06097 68.0905 1.8881C70.2835 1.50773 72.4732 1.10817 74.6678 0.737129C74.8834 0.700676 75.1648 0.742693 75.3453 0.858193C76.9226 1.86717 78.4839 2.90119 80.1502 3.99355C77.7412 7.68662 75.3517 11.3497 72.9224 15.0737C71.6703 14.2512 70.4497 13.4494 69.1849 12.6181Z" fill="#727070"/>
<path d="M40.7118 27.7912C42.5025 28.9688 44.2492 30.1161 46.0222 31.2805C43.9184 34.5231 41.8591 37.6971 39.7094 41.0104C36.5351 38.9519 33.3519 36.8877 30.1213 34.7927C32.2462 31.5194 34.3163 28.3306 36.4378 25.0625C37.8654 25.9732 39.2666 26.867 40.7118 27.7912Z" fill="#9D9D9C"/>
<path d="M56.7524 38.6453C55.8545 40.1473 55.0417 41.7089 53.9487 43.0406C53.0737 44.1066 51.8539 44.888 50.7956 45.8055C50.2013 46.3206 49.6242 46.8554 48.9924 47.4236C47.6609 46.5622 46.3029 45.6849 44.9462 44.8054C43.7823 44.0509 42.6196 43.2945 41.457 42.5379C41.1437 42.3341 40.9378 42.2109 41.2585 41.736C42.9024 39.3013 44.4794 36.8214 46.0799 34.3574C46.4866 33.7313 46.8939 33.1057 47.317 32.4551C50.5054 34.5414 53.6109 36.5736 56.7524 38.6453Z" fill="#9D9D9C"/>
<path d="M60.7991 7.98923C61.0285 8.20012 61.201 8.30419 60.97 8.65335C58.7012 12.0825 56.4667 15.5345 54.2204 18.9786C54.1964 19.0154 54.1443 19.034 54.0748 19.0824C50.7623 16.9285 47.4386 14.7675 44.1073 12.6014C44.2948 12.2604 44.4525 11.9804 44.6041 11.6971C45.1713 10.6371 46.0073 9.92397 47.129 9.44101C50.0383 8.18837 52.9262 6.88373 55.7938 5.53835C56.538 5.1892 57.0165 5.55313 57.5423 5.88159C58.6239 6.55728 59.6851 7.26554 60.7991 7.98923Z" fill="#858686"/>
<path d="M25.8287 47.1603C25.0979 46.6756 24.4207 46.2061 23.7198 45.7751C23.4065 45.5824 23.3573 45.4642 23.582 45.126C25.1321 42.7931 26.6522 40.4403 28.1774 38.091C28.4976 37.5979 28.7668 37.0674 29.1277 36.6077C29.2497 36.4524 29.6683 36.3289 29.8066 36.4172C32.7406 38.2924 35.654 40.1998 38.6474 42.1505C36.6303 45.26 34.6265 48.3492 32.5619 51.532C30.3176 50.0757 28.0951 48.6334 25.8287 47.1603Z" fill="#9D9D9C"/>
<path d="M19.8026 51.4513C20.8266 49.8406 21.8408 48.2826 22.923 46.6204C25.8452 48.5154 28.7496 50.3989 31.7782 52.3629C29.8404 55.352 27.9136 58.3241 25.9364 61.3741C22.9892 59.4651 20.0934 57.5893 17.074 55.6336C17.9912 54.2403 18.892 52.8721 19.8026 51.4513Z" fill="#9D9D9C"/>
<path d="M138.613 24.2764C138.465 24.3885 138.316 24.5005 138.091 24.6699C133.915 21.8684 129.635 18.9966 125.258 16.0598C126.537 14.1514 127.809 12.2537 129.139 10.269C130.011 10.7953 130.889 11.2789 131.718 11.8341C134.374 13.6112 137.021 15.401 139.65 17.2176C140.351 17.7022 140.981 18.2926 141.627 18.8529C141.755 18.9637 141.81 19.1589 141.853 19.357C141.807 19.3989 141.795 19.4319 141.762 19.4707C141.653 19.6552 141.576 19.8007 141.502 19.9466C141.506 19.9469 141.504 19.9394 141.462 19.9581C141.35 20.111 141.28 20.2452 141.213 20.3799C141.217 20.3804 141.215 20.373 141.173 20.3918C141.061 20.5446 140.991 20.6788 140.924 20.8135C140.928 20.8141 140.926 20.8067 140.884 20.8254C140.772 20.9782 140.702 21.1124 140.635 21.2471C140.639 21.2477 140.637 21.2403 140.595 21.259C140.483 21.4119 140.412 21.546 140.346 21.6807C140.35 21.6813 140.348 21.6739 140.306 21.6926C140.194 21.8455 140.123 21.9796 140.057 22.1143C140.061 22.1149 140.059 22.1075 140.017 22.1262C139.905 22.2791 139.834 22.4132 139.768 22.5479C139.771 22.5485 139.77 22.5411 139.728 22.5598C139.616 22.7127 139.545 22.8468 139.479 22.9816C139.482 22.9821 139.481 22.9747 139.439 22.9934C139.326 23.1463 139.256 23.2805 139.19 23.4152C139.193 23.4157 139.192 23.4083 139.15 23.4271C139.037 23.5799 138.967 23.7141 138.9 23.8488C138.904 23.8494 138.903 23.842 138.858 23.8592C138.745 24.0115 138.676 24.1467 138.611 24.2825C138.615 24.2832 138.613 24.2764 138.613 24.2764Z" fill="#727070"/>
<path d="M22.6934 65.9044C21.6439 67.5235 20.604 69.0899 19.4788 70.785C16.7507 69.0194 14.0199 67.252 11.2788 65.478C12.9857 62.8453 14.6633 60.2698 16.3245 57.6838C16.5927 57.2663 16.7726 57.142 17.2674 57.4754C19.6261 59.0647 22.0245 60.5951 24.4071 62.1489C24.5634 62.2509 24.7062 62.3735 24.8833 62.5078C24.1415 63.6455 23.4223 64.7487 22.6934 65.9044Z" fill="#9D9D9C"/>
<path d="M24.3171 74.2559C23.5131 73.7167 22.7476 73.2144 21.9762 72.7083C23.7944 69.9238 25.5764 67.1948 27.4089 64.3884C28.6588 65.2002 29.8746 65.9891 31.0895 66.7792C32.2523 67.5354 33.4131 68.2946 34.577 69.0489C34.8993 69.2578 34.9805 69.4407 34.8903 69.897C34.4327 72.2131 32.7684 73.8429 31.6637 75.7859C31.2352 76.5396 30.7044 77.2351 30.1555 78.0537C28.224 76.8012 26.2898 75.547 24.3171 74.2559Z" fill="#9D9D9C"/>
<path d="M14.1454 39.3612C14.5606 38.5754 14.9558 37.7879 15.471 37.0886C16.953 35.077 18.4802 33.0987 19.9984 31.114C20.2159 30.8297 20.4816 30.5823 20.7466 30.2942C23.0009 31.7602 25.2045 33.1933 27.4556 34.6573C25.4614 37.7303 23.4557 40.8209 21.374 44.0286C18.9781 42.487 16.5791 40.9434 14.1454 39.3612Z" fill="#9D9D9C"/>
<path d="M44.8445 51.9247C43.4943 53.683 42.1811 55.4044 40.8275 57.1788C39.0443 56.012 37.1405 54.7736 35.2448 53.5227C34.2533 52.8684 34.2702 52.8655 34.9403 51.8535C36.6407 49.2855 38.342 46.7177 40.015 44.1318C40.3115 43.6736 40.4821 43.5571 40.9977 43.9086C43.1135 45.3509 45.2732 46.7289 47.4142 48.1344C47.5701 48.2367 47.7064 48.369 47.8782 48.5089C46.8626 49.6541 45.872 50.771 44.8445 51.9247Z" fill="#9D9D9C"/>
<path d="M141.795 19.4316C141.795 19.4316 141.807 19.3986 141.814 19.394C142.214 19.5689 142.69 19.6607 142.987 19.9416C145.63 22.441 148.263 24.9519 150.85 27.5093C151.726 28.3752 152.469 29.3767 153.252 30.3334C153.389 30.5004 153.421 30.753 153.502 31.0206C153.502 31.0751 153.505 31.0712 153.505 31.0712C152.988 31.7652 152.479 32.4649 151.95 33.1497C151.783 33.3664 151.564 33.5431 151.34 33.7794C149.875 32.8388 148.44 31.8567 146.978 30.782C146.868 30.6729 146.786 30.6564 146.704 30.6399C146.704 30.6399 146.708 30.6427 146.72 30.5903C146.577 30.4754 146.424 30.4129 146.27 30.3504C146.27 30.3504 146.275 30.3535 146.286 30.3011C146.144 30.1863 145.99 30.1239 145.837 30.0614C145.837 30.0614 145.841 30.0644 145.852 30.0121C145.71 29.8973 145.557 29.8348 145.403 29.7723C145.403 29.7723 145.407 29.7753 145.419 29.723C145.277 29.6082 145.123 29.5457 144.969 29.4832C144.969 29.4832 144.974 29.4862 144.985 29.4339C144.843 29.3191 144.689 29.2566 144.536 29.1941C144.536 29.1941 144.54 29.1972 144.555 29.1503C144.415 28.9883 144.26 28.8732 144.105 28.7581C144.105 28.7581 144.108 28.7621 144.084 28.7191C143.93 28.6561 143.799 28.6362 143.668 28.6163C143.668 28.6163 143.673 28.6191 143.684 28.5667C143.542 28.4519 143.388 28.3894 143.235 28.3269C143.235 28.3269 143.239 28.3299 143.251 28.2776C143.108 28.1628 142.955 28.1003 142.801 28.0378C142.801 28.0378 142.806 28.0408 142.823 27.9979C142.738 27.9337 142.636 27.9125 142.534 27.8912C141.23 27.0068 139.926 26.1225 138.615 25.1866C138.621 24.8822 138.634 24.6293 138.63 24.3263C138.613 24.2762 138.615 24.283 138.666 24.2934C138.779 24.1498 138.841 23.9958 138.902 23.8417C138.902 23.8417 138.904 23.8491 138.955 23.8597C139.068 23.7162 139.13 23.5621 139.192 23.4081C139.192 23.4081 139.193 23.4155 139.244 23.4261C139.357 23.2826 139.419 23.1285 139.481 22.9745C139.481 22.9745 139.482 22.9819 139.533 22.9924C139.646 22.849 139.708 22.6949 139.77 22.5409C139.77 22.5409 139.771 22.5483 139.822 22.5588C139.935 22.4153 139.997 22.2613 140.059 22.1072C140.059 22.1072 140.061 22.1147 140.111 22.1252C140.224 21.9817 140.286 21.8277 140.348 21.6736C140.348 21.6736 140.35 21.681 140.4 21.6916C140.513 21.5481 140.575 21.3941 140.637 21.24C140.637 21.24 140.639 21.2474 140.689 21.258C140.802 21.1145 140.864 20.9605 140.926 20.8064C140.926 20.8064 140.928 20.8138 140.978 20.8244C141.091 20.6809 141.153 20.5268 141.215 20.3728C141.215 20.3728 141.217 20.3802 141.268 20.3908C141.38 20.2473 141.442 20.0932 141.504 19.9392C141.504 19.9392 141.506 19.9467 141.563 19.9531C141.678 19.7836 141.736 19.6076 141.795 19.4316Z" fill="#585857"/>
<path d="M7.80546 71.1111C8.73443 69.6436 9.65509 68.229 10.6054 66.7688C13.2331 68.4688 15.8432 70.1574 18.5026 71.878C16.7753 74.5335 15.0599 77.1708 13.2875 79.8956C10.6523 78.185 8.064 76.5049 5.40198 74.777C6.22012 73.5428 7.00865 72.3534 7.80546 71.1111Z" fill="#B2B2B2"/>
<path d="M9.97316 46.1085C11.0781 44.1365 12.1731 42.2183 13.2982 40.2473C15.003 41.3548 16.6114 42.4015 18.2218 43.4449C18.8725 43.8664 19.5428 44.2601 20.1695 44.7144C20.3065 44.8136 20.4139 45.194 20.3352 45.3154C18.4684 48.1946 16.5742 51.0561 14.6682 53.9464C12.5085 52.5454 10.3831 51.1666 8.16028 49.7246C8.76088 48.5379 9.36204 47.3501 9.97316 46.1085Z" fill="#9D9D9C"/>
<path d="M31.1163 58.0084C31.9294 56.7891 32.7306 55.6253 33.4838 54.4313C33.7148 54.0651 33.8415 53.9712 34.2447 54.2403C36.0639 55.4546 37.9053 56.636 39.752 57.8082C40.1474 58.0592 40.2996 58.3124 40.0261 58.73C38.161 61.5788 36.8509 64.6993 35.5599 67.9137C34.0882 66.9611 32.6428 66.0285 31.2007 65.0909C30.2932 64.501 29.3986 63.8909 28.4822 63.3153C28.0578 63.0488 27.9447 62.8548 28.2825 62.3679C29.26 60.9593 30.1572 59.4949 31.1163 58.0084Z" fill="#9D9D9C"/>
<path d="M115.104 9.20696C114.379 8.70767 113.697 8.23792 112.955 7.72602C113.771 6.48938 114.551 5.30714 115.388 4.03809C116.989 4.66093 118.616 5.2314 120.19 5.9212C122.387 6.8843 124.549 7.93006 126.719 8.95504C127.277 9.21844 127.824 9.51334 128.343 9.84519C128.48 9.93283 128.614 10.29 128.547 10.3917C127.37 12.1946 126.162 13.9771 124.944 15.7891C121.647 13.5837 118.398 11.4101 115.104 9.20696Z" fill="#727070"/>
<path d="M18.3083 83.148C17.6579 82.7197 17.0515 82.3221 16.3831 81.8838C18.0615 79.3082 19.6969 76.7985 21.4069 74.1743C23.9346 75.819 26.4412 77.45 29.024 79.1305C27.306 81.7563 25.6392 84.3039 23.9597 86.8711C22.0685 85.6258 20.2104 84.4022 18.3083 83.148Z" fill="#B2B2B2"/>
<path d="M18.6055 95.3641C18.4169 95.7414 18.2874 95.9822 17.834 95.6813C15.4717 94.1133 13.0892 92.5755 10.6276 90.9711C12.2634 88.4659 13.8824 85.9866 15.5388 83.45C18.117 85.1306 20.6239 86.7648 23.1393 88.4046C21.6289 90.73 20.1364 93.0277 18.6055 95.3641Z" fill="#B2B2B2"/>
<path d="M29.3043 100.275C28.833 100.981 28.399 101.648 27.9408 102.352C25.5593 100.774 23.1773 99.2051 20.8148 97.6071C20.6708 97.5096 20.5568 97.1009 20.6393 96.9749C22.1916 94.6034 23.7757 92.2527 25.3678 89.876C27.8606 91.5508 30.3264 93.2075 32.8775 94.9215C31.6919 96.7039 30.5168 98.4705 29.3043 100.275Z" fill="#B2B2B2"/>
<path d="M31.9034 27.9918C30.7265 29.7814 29.58 31.5272 28.3957 33.3306C26.1674 31.884 24.0032 30.4791 21.7091 28.9898C23.7361 26.9984 25.686 25.0731 27.648 23.1602C28.3662 22.46 29.0993 21.7731 29.8582 21.1179C30.0236 20.9751 30.4046 20.8663 30.5571 20.9577C31.9455 21.789 33.3053 22.6683 34.7321 23.5705C33.7713 25.0734 32.8526 26.5107 31.9034 27.9918Z" fill="#9D9D9C"/>
<path d="M170.317 64.0152C168.903 63.06 167.556 62.0836 166.177 61.1555C163.784 59.5453 161.371 57.965 158.916 56.3717C159.527 55.3297 160.172 54.2768 160.854 53.2492C162.014 51.5024 163.198 49.7715 164.455 47.9102C165 49.0561 165.561 50.0793 165.983 51.157C167.238 54.3568 168.457 57.5709 169.646 60.7953C169.992 61.7312 170.195 62.7196 170.45 63.6877C170.475 63.7834 170.398 63.9059 170.317 64.0152Z" fill="#484646"/>
<path d="M7.37153 96.1179C8.22449 94.7956 9.06922 93.526 9.96434 92.1807C12.4499 93.811 14.9509 95.4514 17.4878 97.1154C15.9456 99.4654 14.4367 101.765 12.8998 104.107C10.5115 102.544 8.13591 100.998 5.7785 99.4242C5.64729 99.3366 5.55503 98.9558 5.63371 98.8264C6.18229 97.9241 6.78079 97.0523 7.37153 96.1179Z" fill="#B2B2B2"/>
<path d="M89.7931 27.1374C91.725 28.4385 93.6082 29.7188 95.5182 30.9578C95.9597 31.2442 95.9774 31.3894 95.7446 31.8936C95.3393 32.7715 94.7125 32.7587 93.9731 32.6528C93.3637 32.5655 92.7575 32.4072 92.1465 32.3887C89.6758 32.3138 87.2036 32.2358 84.7324 32.2487C83.1839 32.2568 81.6363 32.4263 80.088 32.5194C79.8805 32.5319 79.6716 32.5211 79.3554 32.5211C81.2884 29.6205 83.1634 26.807 85.0503 23.9756C86.6432 25.0343 88.1987 26.068 89.7931 27.1374Z" fill="#727070"/>
<path d="M16.4388 103.874C17.5917 102.127 18.714 100.424 19.8702 98.6697C22.2781 100.274 24.6509 101.856 27.081 103.475C25.5414 105.789 24.0097 108.09 22.4408 110.447C20.7735 109.339 19.1008 108.229 17.4315 107.115C16.8064 106.697 16.1779 106.283 15.5783 105.831C15.4684 105.748 15.4004 105.438 15.4675 105.322C15.7491 104.836 16.0894 104.383 16.4388 103.874Z" fill="#B2B2B2"/>
<path d="M7.11931 51.9446C7.32498 51.5171 7.50242 51.1385 7.73554 50.6411C9.86403 52.02 11.9528 53.3732 14.1287 54.7828C13.4968 55.7682 12.8975 56.713 12.2879 57.6511C11.048 59.5591 9.78854 61.4546 8.57108 63.3768C8.32946 63.7583 8.19645 63.8129 7.81159 63.5516C6.49368 62.6572 5.14468 61.8085 3.68103 60.8604C4.79926 58.0034 5.92115 55.1385 7.03993 52.2723C7.07366 52.1859 7.07476 52.0867 7.11931 51.9446Z" fill="#B2B2B2"/>
<path d="M72.6082 34.0126C69.7401 34.7196 67.0226 35.6879 64.3965 36.8965C62.9549 37.5599 61.5892 38.3906 60.1373 39.0273C59.8118 39.17 59.269 38.817 58.6641 38.6464C59.3214 37.658 59.8644 36.8395 60.4094 36.0223C62.1178 33.4603 63.837 30.9054 65.5255 28.3304C65.7924 27.9235 65.9367 27.8114 66.3974 28.124C69.0419 29.9184 71.7153 31.6703 74.5293 33.5364C73.8113 33.7082 73.2361 33.8458 72.6082 34.0126Z" fill="#727070"/>
<path d="M11.8913 111.198C12.7399 109.95 13.5986 108.77 14.3556 107.529C14.6637 107.024 14.9297 107.058 15.3093 107.312C17.2218 108.59 19.1293 109.876 21.0387 111.158C21.1932 111.262 21.3486 111.365 21.5437 111.494C20.0139 113.792 18.4964 116.071 16.9268 118.429C14.6696 116.926 12.4117 115.423 10.1279 113.903C10.7247 112.987 11.2926 112.114 11.8913 111.198Z" fill="#B2B2B2"/>
<path d="M7.47014 111.694C7.25972 111.795 7.0192 111.96 6.91995 111.898C5.66619 111.116 4.39067 110.357 3.21784 109.465C2.82672 109.167 2.64734 108.527 2.48548 108.007C2.23533 107.205 2.05624 106.376 1.90499 105.548C1.85345 105.266 1.88801 104.897 2.03482 104.662C2.88018 103.309 3.77001 101.984 4.64893 100.652C4.70008 100.575 4.78763 100.521 4.91215 100.407C6.47175 101.429 8.03811 102.456 9.6047 103.482C10.1936 103.867 10.7606 104.295 11.3797 104.624C11.8541 104.876 11.8235 105.065 11.5512 105.472C10.1829 107.519 8.85063 109.59 7.47014 111.694Z" fill="#B2B2B2"/>
<path d="M27.4254 106.49C27.7643 106.005 28.0856 105.57 28.361 105.107C28.5806 104.739 28.7801 104.693 29.1448 104.944C30.9798 106.206 32.8151 107.469 34.6872 108.674C35.2075 109.009 35.3597 109.222 34.9707 109.775C33.5538 111.788 32.1794 113.83 30.7543 115.912C28.536 114.417 26.3343 112.932 24.14 111.453C25.2513 109.768 26.3197 108.148 27.4254 106.49Z" fill="#B2B2B2"/>
<path d="M27.2048 124.488C28.5854 122.418 29.9292 120.388 31.2925 118.328C33.2794 119.653 35.2207 120.948 37.2431 122.296C36.6567 123.208 36.0997 124.094 35.5221 124.967C34.7713 126.101 33.9933 127.217 33.2493 128.356C32.9729 128.779 32.7764 128.87 32.2979 128.535C30.7063 127.42 29.0602 126.383 27.4413 125.307C27.1721 125.128 26.8214 124.94 27.2048 124.488Z" fill="#B2B2B2"/>
<path d="M22.9448 114.295C23.1912 113.946 23.4002 113.636 23.6365 113.284C25.6126 114.621 27.5653 115.942 29.58 117.305C28.0902 119.526 26.6423 121.684 25.1715 123.876C23.161 122.517 21.2113 121.199 19.217 119.851C20.4406 118.021 21.674 116.177 22.9448 114.295Z" fill="#B2B2B2"/>
<path d="M16.9488 123.325C17.4583 122.562 17.9304 121.837 18.4383 121.058C20.4126 122.385 22.3477 123.686 24.3976 125.064C23.0525 127.072 21.7159 129.068 20.3382 131.125C18.3558 129.781 16.4075 128.46 14.4158 127.11C15.2573 125.847 16.0844 124.605 16.9488 123.325Z" fill="#B2B2B2"/>
<path d="M11.6587 116.536C13.048 117.499 14.3933 118.432 15.7612 119.38C14.4404 121.36 13.1166 123.344 11.7792 125.349C10.4123 124.451 9.03473 123.641 7.78151 122.67C7.3337 122.324 7.25122 121.541 6.88666 121.042C6.38038 120.349 6.83944 119.884 7.16181 119.393C8.02156 118.082 8.91134 116.791 9.8471 115.406C10.4369 115.773 11.0258 116.139 11.6587 116.536Z" fill="#B2B2B2"/>
<path d="M39.7065 114.37C40.1673 115.11 40.5951 115.807 41.0342 116.522C40.127 117.882 39.2055 119.263 38.2454 120.703C36.2735 119.381 34.3178 118.07 32.2788 116.703C33.7764 114.482 35.2387 112.313 36.6798 110.175C37.67 110.551 38.1083 111.334 38.5197 112.153C38.8879 112.886 39.2877 113.603 39.7065 114.37Z" fill="#B2B2B2"/>
<path d="M32.6274 133.215C33.0418 132.584 33.4256 131.996 33.8488 131.348C35.6234 132.54 37.3475 133.698 39.1135 134.884C37.7784 136.851 36.5027 138.73 35.1887 140.665C33.8827 139.783 32.5865 138.914 31.297 138.036C29.9993 137.151 30.0028 137.147 30.8789 135.837C31.4527 134.978 32.0242 134.119 32.6274 133.215Z" fill="#B2B2B2"/>
<path d="M43.108 126.868C43.3992 127.073 43.6518 127.242 43.9889 127.466C42.7166 129.383 41.4413 131.303 40.1328 133.274C38.4064 132.126 36.7005 130.991 34.8995 129.793C35.2006 129.302 35.4842 128.802 35.8033 128.327C36.6775 127.023 37.5816 125.74 38.4413 124.428C38.7082 124.02 38.8991 124.054 39.265 124.306C40.5175 125.17 41.799 125.992 43.108 126.868Z" fill="#B2B2B2"/>
<path d="M23.849 133.119C23.7581 133.082 23.7205 133.052 23.6819 133.023C22.5906 132.218 22.5881 132.216 23.3392 131.103C24.2712 129.723 25.2219 128.355 26.1312 126.96C26.324 126.664 26.4609 126.507 26.7869 126.726C28.3831 127.795 29.9793 128.865 31.5737 129.937C31.6083 129.96 31.6212 130.016 31.651 130.069C30.3835 131.946 29.1131 133.827 27.8043 135.766C26.4922 134.879 25.197 134.003 23.849 133.119Z" fill="#B2B2B2"/>
<path d="M30.9316 147.14C30.707 147.499 30.4907 147.805 30.2167 148.194C28.4873 147.046 26.7449 145.89 24.989 144.724C26.1647 142.943 27.3224 141.186 28.4837 139.431C28.7302 139.058 28.9466 138.954 29.4009 139.277C30.7544 140.24 32.1663 141.12 33.555 142.032C33.9271 142.277 34.1202 142.482 33.762 142.971C32.7799 144.313 31.8752 145.711 30.9316 147.14Z" fill="#B2B2B2"/>
<path d="M18.5384 138.357C19.4908 136.929 20.4059 135.539 21.4119 134.011C23.1445 135.17 24.8675 136.322 26.6517 137.515C25.3544 139.459 24.0842 141.361 22.7744 143.323C21.489 142.459 20.2666 141.637 19.0447 140.816C19.0251 140.802 19.0121 140.779 18.9926 140.766C17.6043 139.813 17.6042 139.813 18.5384 138.357Z" fill="#B2B2B2"/>
<path d="M30.3162 82.6415C30.7277 82.0442 31.1018 81.4852 31.515 80.8677C31.8623 81.0664 32.1802 81.2481 32.4576 81.4068C32.1621 85.1234 32.0769 88.7949 32.5471 92.6147C30.421 91.1979 28.4252 89.868 26.4154 88.5288C27.7253 86.5457 29.0021 84.6127 30.3162 82.6415Z" fill="#B2B2B2"/>
<path d="M33.8554 21.6435C32.9977 21.0934 32.1786 20.5798 31.235 19.988C31.9505 19.3832 32.5606 18.7988 33.2382 18.3075C35.3815 16.7533 37.5443 15.2256 39.7124 13.7061C40.3305 13.2729 40.987 12.8931 41.6388 12.5107C41.7711 12.4331 41.9614 12.4545 42.1249 12.4302C42.0934 12.6016 42.11 12.8037 42.0231 12.9396C40.9538 14.612 39.8679 16.2738 38.7891 17.9402C37.852 19.3878 36.9176 20.837 35.9843 22.287C35.7394 22.6676 35.5013 22.8415 35.0733 22.4616C34.7241 22.1516 34.2903 21.937 33.8554 21.6435Z" fill="#858686"/>
<path d="M4.51808 69.7015C3.70117 70.935 2.92166 72.1303 2.13434 73.3375C1.71162 73.0816 1.37495 72.8778 0.927551 72.6071C1.74483 69.0462 2.56529 65.4714 3.41527 61.7681C4.9628 62.7678 6.37413 63.6796 7.80185 64.6019C6.69727 66.324 5.62637 67.9936 4.51808 69.7015Z" fill="#B2B2B2"/>
<path d="M12.2844 131.522C11.9478 131.157 11.8924 130.872 12.2183 130.483C12.5767 130.054 12.8752 129.567 13.1431 129.075C13.3848 128.631 13.641 128.598 14.0356 128.866C15.7052 130 17.3874 131.116 19.0502 132.26C19.1948 132.359 19.3572 132.698 19.299 132.788C18.3042 134.315 17.2758 135.821 16.1252 137.524C14.7962 135.461 13.5447 133.519 12.2844 131.522Z" fill="#B2B2B2"/>
<path d="M40.2774 154.115C40.0346 153.964 39.8364 153.845 39.572 153.685C40.6193 152.125 41.665 150.567 42.7546 148.943C44.1892 149.918 45.5926 150.872 47.026 151.846C45.9563 153.438 44.9163 154.985 43.8503 156.571C42.6618 155.754 41.4919 154.95 40.2774 154.115Z" fill="#C7C6C7"/>
<path d="M45.5696 130.132C45.7389 129.899 45.8771 129.709 46.0511 129.471C47.4638 130.412 48.8621 131.342 50.3086 132.305C49.2622 133.878 48.2275 135.433 47.1566 137.043C45.763 136.115 44.3654 135.186 42.8612 134.185C43.7598 132.839 44.6492 131.507 45.5696 130.132Z" fill="#B2B2B2"/>
<path d="M47.0098 147.824C46.1968 147.264 45.4219 146.742 44.5793 146.174C45.6542 144.593 46.703 143.051 47.7685 141.483C49.0669 142.35 50.349 143.197 51.6207 144.06C51.9251 144.266 51.943 144.479 51.6979 144.829C50.7481 146.189 49.8555 147.589 48.8847 149.06C48.2764 148.663 47.6621 148.262 47.0098 147.824Z" fill="#C7C6C7"/>
<path d="M37.9664 145.732C38.7636 146.278 39.517 146.793 40.3276 147.346C39.2848 148.915 38.2437 150.481 37.1826 152.077C35.7772 151.14 34.3784 150.208 32.913 149.232C33.9673 147.649 35.0092 146.085 36.0625 144.504C36.7095 144.92 37.316 145.311 37.9664 145.732Z" fill="#C7C6C7"/>
<path d="M55.2486 135.539C55.8459 135.951 56.405 136.325 57.0582 136.762C56.0069 138.349 54.9767 139.905 53.918 141.503C52.5027 140.561 51.1319 139.648 49.6522 138.663C50.7013 137.083 51.7409 135.518 52.7958 133.93C53.6459 134.484 54.4281 134.993 55.2486 135.539Z" fill="#B2B2B2"/>
<path d="M42.3455 144.268C42.1178 144.286 41.8596 144.312 41.6901 144.202C40.5509 143.463 39.4373 142.685 38.2997 141.943C37.9816 141.735 37.9492 141.582 38.168 141.264C39.0565 139.972 39.9171 138.661 40.7842 137.355C40.9463 137.111 41.0397 136.89 41.42 137.158C42.5102 137.924 43.6407 138.633 44.7507 139.371C44.9476 139.502 45.1221 139.667 45.3131 139.821C44.2883 141.343 43.3221 142.779 42.3455 144.268Z" fill="#B2B2B2"/>
<path d="M34.9456 106.707C33.1483 105.473 31.3893 104.277 29.5403 103.019C30.7677 101.191 31.9871 99.3754 33.1674 97.6177C34.1231 100.859 35.0839 104.117 36.0571 107.417C35.6888 107.186 35.3363 106.965 34.9456 106.707Z" fill="#B2B2B2"/>
<path d="M159.171 38.9795C158.274 38.466 157.385 37.9227 156.511 37.3554C155.273 36.5509 154.041 35.7347 152.817 34.909C152.59 34.7559 152.41 34.5338 152.181 34.2511C152.072 34.1418 151.99 34.125 151.91 34.1097C151.912 34.1111 151.916 34.1141 151.916 34.1141C152.188 33.577 152.447 33.0325 152.736 32.5048C152.984 32.0525 153.267 31.6192 153.52 31.1244C153.505 31.0712 153.502 31.0752 153.5 31.0766C153.916 31.4213 154.423 31.6979 154.735 32.1189C156.33 34.265 157.874 36.4482 159.434 38.62C159.488 38.6949 159.518 38.787 159.575 38.9039C159.43 38.9169 159.308 38.9279 159.171 38.9795Z" fill="#585857"/>
<path d="M104.224 1.72217C106.067 2.14455 107.92 2.53094 109.751 3.00148C111.056 3.33676 112.333 3.78322 113.62 4.18595C113.767 4.23198 113.902 4.31595 114.091 4.4048C113.451 5.36491 112.848 6.26884 112.191 7.25422C109.523 5.46942 106.856 3.68547 104.186 1.83699C104.183 1.77246 104.224 1.72217 104.224 1.72217Z" fill="#727070"/>
<path d="M52.6519 147.763C53.0023 147.258 53.3211 146.796 53.6827 146.272C54.7245 146.963 55.7637 147.651 56.873 148.387C56.086 149.579 55.3183 150.742 54.5151 151.958C53.4451 151.231 52.3856 150.511 51.2903 149.766C51.7319 149.115 52.176 148.461 52.6519 147.763Z" fill="#C7C6C7"/>
<path d="M61.3799 140.528C61.656 140.76 61.7773 140.893 61.5096 141.242C60.8564 142.095 60.3114 143.029 59.6888 143.907C59.5829 144.056 59.2264 144.215 59.1238 144.15C58.1551 143.54 57.2164 142.881 56.2312 142.211C57.0249 141.028 57.7979 139.877 58.5845 138.705C59.5417 139.328 60.4387 139.913 61.3799 140.528Z" fill="#C7C6C7"/>
<path d="M47.5162 155.344C47.9558 154.704 48.3578 154.102 48.8041 153.434C49.8544 154.126 50.878 154.801 52.0031 155.542C51.2172 156.728 50.4505 157.885 49.653 159.088C48.6139 158.391 47.658 157.762 46.7238 157.103C46.6377 157.042 46.6233 156.748 46.6905 156.626C46.926 156.196 47.2118 155.795 47.5162 155.344Z" fill="#C7C6C7"/>
<path d="M44.8417 121.662C45.3415 122.212 45.8025 122.727 46.2693 123.237C46.5463 123.539 46.5701 123.84 46.3151 124.171C46.1032 124.446 45.9103 124.735 45.7 125.031C44.0679 123.955 42.4451 122.884 40.8209 121.815C40.544 121.633 40.4621 121.431 40.6772 121.134C41.2687 120.318 41.8469 119.491 42.4539 118.636C43.2486 119.646 44.027 120.636 44.8417 121.662Z" fill="#B2B2B2"/>
<path d="M61.7206 7.64296C60.3511 6.77515 59.0344 5.90705 57.5071 4.90007C60.0558 4.1181 62.4262 3.39084 64.7966 2.66357C64.8466 2.73084 64.8966 2.79811 64.9465 2.86537C63.8889 4.4578 62.8312 6.05023 61.7206 7.64296Z" fill="#858686"/>
<path d="M60.6967 151.474C61.015 151.637 61.1822 151.829 60.9684 152.142C60.4274 152.933 59.8837 153.722 59.2991 154.573C58.4487 154.007 57.6186 153.454 56.7781 152.895C57.4004 151.958 57.982 151.082 58.6315 150.104C59.3134 150.566 59.979 151.017 60.6967 151.474Z" fill="#C7C6C7"/>
<path d="M56.1845 159.529C55.5901 160.433 55.0281 161.295 54.4607 162.165C53.7596 161.684 53.1052 161.19 52.4047 160.773C52.0235 160.546 51.9372 160.401 52.2189 160.017C52.6747 159.397 53.0559 158.722 53.4945 158.089C53.5897 157.951 53.8772 157.77 53.9361 157.811C54.711 158.348 55.4608 158.922 56.1845 159.529Z" fill="#C7C6C7"/>
<path d="M38.3512 158.954C37.8456 158.603 37.3839 158.284 36.8655 157.926C37.2155 157.418 37.5646 156.911 37.9512 156.35C39.3631 157.29 40.7569 158.218 42.2102 159.186C41.8599 159.709 41.5177 160.22 41.1562 160.76C40.199 160.145 39.297 159.565 38.3512 158.954Z" fill="#C7C6C7"/>
<path d="M62.586 144.249C62.9533 143.68 63.3136 143.163 63.6916 142.621C64.3978 143.094 65.0742 143.547 65.8114 144.04C65.4073 144.935 65.0088 145.816 64.6113 146.698C64.4537 147.048 64.2607 147.072 63.9439 146.845C63.279 146.371 62.5857 145.936 61.8225 145.431C62.0717 145.059 62.3254 144.681 62.586 144.249Z" fill="#C7C6C7"/>
<path d="M33.79 155.706C32.9352 154.996 32.1135 154.328 31.3001 153.65C30.4043 152.903 30.4119 152.734 31.3597 151.905C32.7306 152.819 34.1059 153.735 35.5558 154.701C35.2185 155.214 34.8838 155.722 34.5478 156.233C34.278 156.05 34.0524 155.896 33.79 155.706Z" fill="#C7C6C7"/>
<path d="M6.0657 113.153C5.60595 113.906 5.14916 114.604 4.67446 115.329C4.24426 113.976 3.82849 112.668 3.41272 111.359C3.48259 111.314 3.55247 111.269 3.62234 111.224C4.43778 111.849 5.25322 112.474 6.0657 113.153Z" fill="#B2B2B2"/>
<path d="M26.8534 149.782C25.8572 148.786 24.8969 147.828 23.9366 146.87C23.9866 146.807 24.0367 146.743 24.0868 146.68C25.6922 147.748 27.2976 148.816 28.9105 149.889C28.6572 150.262 28.4403 150.581 28.2106 150.919C27.7553 150.541 27.3223 150.18 26.8534 149.782Z" fill="#B2B2B2"/>
<path d="M45.4199 162.134C45.976 162.527 46.494 162.882 47.0254 163.246C46.8876 163.494 46.7869 163.675 46.6558 163.91C45.5007 163.269 44.3688 162.64 43.2132 161.998C43.4457 161.69 43.6542 161.414 43.8737 161.124C44.4033 161.465 44.8925 161.781 45.4199 162.134Z" fill="#C7C6C7"/>
<path d="M57.5652 162.798C57.9929 162.178 58.3896 161.601 58.9275 160.82C58.9967 161.225 59.1272 161.488 59.0608 161.685C58.7435 162.625 58.3727 163.548 58.0055 164.518C57.6367 164.268 57.2951 164.036 56.9412 163.795C57.143 163.471 57.3386 163.156 57.5652 162.798Z" fill="#C7C6C7"/>
<path d="M97.0837 31.8486C97.9395 32.4304 98.751 32.9851 99.5624 33.5397C99.5392 33.5869 99.5161 33.6341 99.4929 33.6812C98.4185 33.4461 97.344 33.211 96.1182 32.9428C96.495 32.4842 96.7671 32.1528 97.0837 31.8486Z" fill="#727070"/>
<path d="M10.0614 127.293C9.69469 126.793 9.37084 126.26 9.047 125.727C9.08973 125.694 9.13246 125.661 9.17519 125.628C9.61313 125.907 10.0511 126.186 10.5396 126.497C10.3888 126.761 10.2465 127.01 10.0614 127.293Z" fill="#B2B2B2"/>
<path d="M1.33585 73.6781C1.41134 73.9195 1.5348 74.1622 1.46463 74.3174C1.3141 74.6502 1.06364 74.9379 0.712097 75.2223C0.770226 74.648 0.828354 74.0736 0.889025 73.4741C1.03803 73.5348 1.16704 73.5873 1.33585 73.6781Z" fill="#B2B2B2"/>
<path d="M0.750314 97.6709C1.01569 97.8723 1.23986 98.0385 1.49965 98.2312C1.26775 98.5967 1.06065 98.9231 0.853547 99.2496C0.8054 99.2423 0.757253 99.235 0.709106 99.2277C0.709106 98.697 0.709106 98.1664 0.750314 97.6709Z" fill="#B2B2B2"/>
<path d="M48.6558 125.785C49.0232 126.043 49.3458 126.273 49.6683 126.504C49.5803 126.603 49.4924 126.701 49.4044 126.799C49.0276 126.565 48.6509 126.331 48.1947 126.047C48.3701 125.925 48.4905 125.841 48.6558 125.785Z" fill="#B2B2B2"/>
<path d="M104.16 1.79547C104.037 1.76624 103.937 1.71404 103.686 1.58374C103.957 1.61606 104.067 1.62909 104.2 1.68217C104.224 1.72222 104.183 1.77251 104.16 1.79547Z" fill="#727070"/>
<path d="M49.6893 126.867C49.7297 126.93 49.7183 126.981 49.7068 127.033C49.6837 126.973 49.6605 126.914 49.6893 126.867Z" fill="#B2B2B2"/>
<path d="M151.928 34.2496C151.899 34.2504 151.87 34.2512 151.798 34.2512C151.783 34.2103 151.813 34.1703 151.879 34.1222C151.916 34.1141 151.912 34.1111 151.913 34.1452C151.914 34.1794 151.928 34.2496 151.928 34.2496Z" fill="#585857"/>
<path d="M155.552 93.051C154.161 92.0981 152.81 91.1774 151.458 90.2568C151.493 90.1989 151.528 90.1409 151.563 90.083C151.774 90.1978 151.994 90.2976 152.193 90.4301C153.248 91.1321 154.289 91.856 155.355 92.5391C155.585 92.6863 155.903 92.6967 156.399 92.828C156.062 92.9347 155.826 93.009 155.552 93.051Z" fill="black"/>
<path d="M149.528 88.6474C149.441 88.7031 149.295 88.7708 149.22 88.7241C148.9 88.5235 148.601 88.2893 148.294 88.0674C148.335 88.0095 148.375 87.9515 148.416 87.8936C148.778 88.1313 149.14 88.369 149.528 88.6474Z" fill="black"/>
<path d="M149.928 69.067C149.951 68.91 150.018 68.7295 150.131 68.5269C150.109 68.6843 150.04 68.8639 149.928 69.067Z" fill="black"/>
<path d="M150.61 67.9335C150.639 67.7998 150.726 67.6665 150.856 67.5132C150.822 67.64 150.744 67.787 150.61 67.9335Z" fill="black"/>
<path d="M150.226 68.5057C150.245 68.3697 150.319 68.2288 150.429 68.0535C150.405 68.1796 150.343 68.3403 150.226 68.5057Z" fill="black"/>
<path d="M149.356 69.8083C149.374 69.6779 149.443 69.5445 149.556 69.3916C149.535 69.5165 149.471 69.6609 149.356 69.8083Z" fill="black"/>
<path d="M149.067 70.2419C149.085 70.1115 149.154 69.9781 149.267 69.8252C149.246 69.9501 149.182 70.0945 149.067 70.2419Z" fill="black"/>
<path d="M148.778 70.6755C148.796 70.5451 148.865 70.4117 148.978 70.2588C148.957 70.3836 148.893 70.5281 148.778 70.6755Z" fill="black"/>
<path d="M148.442 71.1132C148.471 70.9794 148.558 70.8462 148.688 70.6929C148.654 70.8197 148.576 70.9667 148.442 71.1132Z" fill="black"/>
<path d="M146.317 74.291C146.383 74.1422 146.498 73.9926 146.661 73.8481C146.595 73.999 146.48 74.1446 146.317 74.291Z" fill="black"/>
<path d="M145.161 76.0254C145.227 75.8766 145.342 75.7269 145.505 75.5825C145.439 75.7334 145.324 75.879 145.161 76.0254Z" fill="black"/>
<path d="M144.293 77.3262C144.36 77.1774 144.474 77.0277 144.638 76.8833C144.571 77.0342 144.456 77.1798 144.293 77.3262Z" fill="black"/>
<path d="M141.117 82.0939C141.135 81.9636 141.204 81.8302 141.317 81.6772C141.296 81.8021 141.232 81.9465 141.117 82.0939Z" fill="black"/>
<path d="M141.406 81.6603C141.424 81.53 141.493 81.3966 141.606 81.2437C141.585 81.3685 141.521 81.5129 141.406 81.6603Z" fill="black"/>
<path d="M141.695 81.2268C141.713 81.0964 141.783 80.963 141.895 80.8101C141.874 80.9349 141.81 81.0793 141.695 81.2268Z" fill="black"/>
<path d="M141.984 80.7932C142.002 80.6628 142.072 80.5294 142.184 80.3765C142.163 80.5013 142.1 80.6457 141.984 80.7932Z" fill="black"/>
<path d="M152.388 65.3296C152.454 65.1808 152.569 65.0311 152.732 64.8867C152.666 65.0376 152.551 65.1832 152.388 65.3296Z" fill="black"/>
<path d="M151.52 66.6304C151.587 66.4816 151.701 66.3319 151.865 66.1875C151.798 66.3383 151.683 66.484 151.52 66.6304Z" fill="black"/>
<path d="M150.946 67.4956C150.966 67.367 151.038 67.2353 151.149 67.0815C151.125 67.2038 151.061 67.3482 150.946 67.4956Z" fill="black"/>
<path d="M150.655 89.6112C150.711 89.5664 150.769 89.561 150.826 89.5557C150.827 89.5952 150.827 89.6348 150.827 89.6743C150.77 89.6665 150.713 89.6586 150.655 89.6112Z" fill="black"/>
<path d="M150.419 89.3359C150.363 89.3807 150.305 89.3859 150.248 89.3911C150.247 89.3514 150.247 89.3117 150.247 89.272C150.304 89.2801 150.361 89.2882 150.419 89.3359Z" fill="black"/>
<path d="M149.986 89.0468C149.93 89.0916 149.872 89.0968 149.814 89.102C149.814 89.0623 149.813 89.0226 149.813 88.9829C149.87 88.991 149.927 88.9991 149.986 89.0468Z" fill="black"/>
<path d="M148.107 87.7458C148.05 87.7906 147.993 87.7959 147.935 87.8011C147.935 87.7613 147.934 87.7216 147.934 87.6819C147.991 87.69 148.048 87.6981 148.107 87.7458Z" fill="black"/>
<path d="M147.508 87.3779C147.583 87.388 147.628 87.4232 147.673 87.4585C147.643 87.4852 147.614 87.5118 147.585 87.5385C147.549 87.4934 147.514 87.4483 147.508 87.3779Z" fill="black"/>
<path d="M147.146 87.0669C147.192 87.1228 147.199 87.1782 147.206 87.2336C147.166 87.2325 147.125 87.2315 147.085 87.2305C147.092 87.1758 147.099 87.1211 147.146 87.0669Z" fill="black"/>
<path d="M146.712 86.7778C146.759 86.8337 146.766 86.8891 146.773 86.9445C146.732 86.9435 146.692 86.9424 146.651 86.9414C146.658 86.8867 146.665 86.832 146.712 86.7778Z" fill="black"/>
<path d="M146.2 86.6441C146.208 86.5737 146.243 86.5308 146.279 86.488C146.307 86.5165 146.336 86.5449 146.365 86.5734C146.319 86.6061 146.273 86.6389 146.2 86.6441Z" fill="black"/>
<path d="M145.913 86.2319C145.905 86.3027 145.869 86.3454 145.834 86.3881C145.805 86.3595 145.777 86.3308 145.748 86.3021C145.794 86.2694 145.84 86.2366 145.913 86.2319Z" fill="black"/>
<path d="M145.505 86.0114C145.449 86.0562 145.391 86.0614 145.334 86.0667C145.333 86.0269 145.333 85.9872 145.332 85.9475C145.389 85.9556 145.446 85.9637 145.505 86.0114Z" fill="black"/>
<path d="M151.193 89.813C151.239 89.8689 151.246 89.9243 151.253 89.9797C151.213 89.9786 151.172 89.9776 151.132 89.9765C151.139 89.9219 151.146 89.8672 151.193 89.813Z" fill="black"/>
<path d="M147.766 72.1209C147.786 71.9923 147.858 71.8606 147.969 71.7068C147.945 71.8291 147.881 71.9734 147.766 72.1209Z" fill="black"/>
<path d="M145.874 75.1371C145.899 75.0128 145.962 74.8642 146.079 74.718C146.058 74.8513 145.985 74.982 145.874 75.1371Z" fill="black"/>
<path d="M146.741 73.8364C146.767 73.712 146.83 73.5634 146.946 73.4172C146.926 73.5505 146.852 73.6813 146.741 73.8364Z" fill="black"/>
<path d="M153.679 63.5742C153.705 63.4498 153.768 63.3012 153.884 63.155C153.864 63.2883 153.79 63.4191 153.679 63.5742Z" fill="black"/>
<path d="M147.188 72.9881C147.208 72.8594 147.28 72.7278 147.391 72.574C147.367 72.6962 147.303 72.8406 147.188 72.9881Z" fill="black"/>
<path d="M147.477 72.5545C147.497 72.4258 147.569 72.2942 147.68 72.1404C147.656 72.2626 147.592 72.407 147.477 72.5545Z" fill="black"/>
<path d="M148.058 71.6856C148.079 71.5504 148.155 71.4104 148.265 71.2346C148.237 71.3594 148.175 71.5201 148.058 71.6856Z" fill="black"/>
<path d="M153.39 64.0078C153.415 63.8834 153.478 63.7348 153.595 63.5886C153.574 63.7219 153.501 63.8527 153.39 64.0078Z" fill="black"/>
<path d="M153.101 64.4414C153.126 64.317 153.189 64.1684 153.306 64.0222C153.285 64.1555 153.212 64.2863 153.101 64.4414Z" fill="black"/>
<path d="M152.812 64.875C152.837 64.7506 152.9 64.602 153.017 64.4558C152.996 64.5891 152.923 64.7199 152.812 64.875Z" fill="black"/>
<path d="M149.641 69.3764C149.659 69.2763 149.724 69.1752 149.839 69.0786C149.822 69.1806 149.756 69.278 149.641 69.3764Z" fill="black"/>
<path d="M151.945 66.1757C151.97 66.0514 152.033 65.9028 152.149 65.7566C152.129 65.8899 152.056 66.0206 151.945 66.1757Z" fill="black"/>
<path d="M151.235 67.062C151.255 66.9334 151.327 66.8017 151.438 66.6479C151.414 66.7702 151.35 66.9146 151.235 67.062Z" fill="black"/>
<path d="M143.719 78.1914C143.739 78.0628 143.811 77.9311 143.922 77.7773C143.898 77.8996 143.834 78.044 143.719 78.1914Z" fill="black"/>
<path d="M142.272 80.3605C142.302 80.2573 142.382 80.1522 142.518 80.0544C142.49 80.1607 142.406 80.2596 142.272 80.3605Z" fill="black"/>
<path d="M142.852 79.4922C142.872 79.3636 142.944 79.2319 143.055 79.0781C143.031 79.2004 142.967 79.3448 142.852 79.4922Z" fill="black"/>
<path d="M143.141 79.0586C143.161 78.93 143.233 78.7983 143.344 78.6445C143.32 78.7668 143.256 78.9112 143.141 79.0586Z" fill="black"/>
<path d="M143.43 78.625C143.45 78.4964 143.522 78.3647 143.633 78.2109C143.609 78.3332 143.545 78.4776 143.43 78.625Z" fill="black"/>
<path d="M145.585 75.5707C145.61 75.4464 145.673 75.2978 145.79 75.1516C145.769 75.2849 145.696 75.4156 145.585 75.5707Z" fill="black"/>
<path d="M144.008 77.7578C144.028 77.6292 144.1 77.4975 144.211 77.3438C144.187 77.466 144.123 77.6104 144.008 77.7578Z" fill="black"/>
<path d="M157.871 57.3591C157.896 57.2348 157.959 57.0861 158.075 56.9399C158.055 57.0732 157.982 57.204 157.871 57.3591Z" fill="black"/>
<path d="M144.718 76.8715C144.743 76.7472 144.806 76.5985 144.922 76.4524C144.902 76.5857 144.829 76.7164 144.718 76.8715Z" fill="black"/>
<path d="M157.582 57.7927C157.607 57.6683 157.67 57.5197 157.786 57.3735C157.766 57.5068 157.693 57.6376 157.582 57.7927Z" fill="black"/>
<path d="M156.412 92.3272C156.431 92.2507 156.452 92.2102 156.473 92.1697C156.493 92.2095 156.538 92.259 156.527 92.2868C156.514 92.3216 156.454 92.3385 156.412 92.3272Z" fill="black"/>
<path d="M164.402 80.3423C164.442 80.3835 164.458 80.4478 164.465 80.513C164.466 80.5263 164.431 80.5433 164.413 80.5586C164.4 80.4943 164.387 80.43 164.402 80.3423Z" fill="black"/>
<path d="M142.7 84.2556C142.686 84.2121 142.704 84.1484 142.731 84.1441C142.768 84.1383 142.811 84.1783 142.852 84.1986C142.813 84.2197 142.774 84.2408 142.7 84.2556Z" fill="black"/>
<path d="M142.391 83.9412C142.303 83.945 142.24 83.9239 142.177 83.9028C142.194 83.8859 142.215 83.852 142.227 83.8549C142.291 83.8704 142.354 83.895 142.391 83.9412Z" fill="black"/>
<path d="M162.128 84.0031C162.086 83.9497 162.072 83.8732 162.058 83.7966C162.085 83.7928 162.113 83.789 162.14 83.7852C162.145 83.8501 162.15 83.915 162.128 84.0031Z" fill="black"/>
<path d="M162.338 83.5106C162.357 83.4341 162.378 83.3936 162.399 83.353C162.419 83.3929 162.464 83.4423 162.453 83.4702C162.44 83.5049 162.381 83.5219 162.338 83.5106Z" fill="black"/>
<path d="M162.706 83.1359C162.664 83.0825 162.65 83.006 162.636 82.9294C162.664 82.9256 162.691 82.9218 162.718 82.918C162.723 82.9829 162.728 83.0478 162.706 83.1359Z" fill="black"/>
<path d="M162.92 82.5744C162.963 82.561 163.027 82.579 163.031 82.6058C163.036 82.6424 162.996 82.6856 162.975 82.726C162.954 82.6872 162.934 82.6484 162.92 82.5744Z" fill="black"/>
<path d="M163.245 82.0767C163.285 82.1179 163.302 82.1821 163.308 82.2474C163.31 82.2606 163.275 82.2777 163.257 82.293C163.244 82.2287 163.231 82.1643 163.245 82.0767Z" fill="black"/>
<path d="M163.534 81.6431C163.574 81.6843 163.591 81.7485 163.597 81.8138C163.599 81.8271 163.564 81.8441 163.546 81.8594C163.533 81.7951 163.52 81.7308 163.534 81.6431Z" fill="black"/>
<path d="M163.787 81.2736C163.83 81.2602 163.895 81.2782 163.898 81.305C163.904 81.3416 163.863 81.3848 163.842 81.4252C163.822 81.3864 163.801 81.3477 163.787 81.2736Z" fill="black"/>
<path d="M164.073 80.9087C164.091 80.8323 164.112 80.7917 164.133 80.7512C164.154 80.7911 164.199 80.8405 164.188 80.8684C164.175 80.9031 164.115 80.9201 164.073 80.9087Z" fill="black"/>
<path d="M158.37 89.6401C158.328 89.5867 158.314 89.5101 158.3 89.4336C158.327 89.4298 158.354 89.4259 158.382 89.4221C158.387 89.487 158.392 89.552 158.37 89.6401Z" fill="black"/>
<path d="M142.686 79.9466C142.673 79.8442 142.695 79.699 142.761 79.5217C142.777 79.6277 142.748 79.7657 142.686 79.9466Z" fill="black"/>
<path d="M145.009 76.4332C144.991 76.3338 145.013 76.2048 145.076 76.0483C145.095 76.1484 145.071 76.2761 145.009 76.4332Z" fill="black"/>
<path d="M146.165 74.6988C146.147 74.5994 146.169 74.4704 146.232 74.314C146.251 74.4141 146.228 74.5417 146.165 74.6988Z" fill="black"/>
<path d="M147.032 73.3978C147.014 73.2983 147.036 73.1694 147.1 73.0129C147.118 73.113 147.095 73.2407 147.032 73.3978Z" fill="black"/>
<path d="M152.236 65.7374C152.218 65.638 152.24 65.509 152.303 65.3525C152.322 65.4527 152.298 65.5803 152.236 65.7374Z" fill="black"/>
<path d="M157.286 58.0896C157.314 58.005 157.382 57.9026 157.501 57.8049C157.476 57.897 157.401 57.9844 157.286 58.0896Z" fill="black"/>
<path d="M158.162 56.9205C158.144 56.8211 158.166 56.6921 158.229 56.5356C158.248 56.6358 158.225 56.7634 158.162 56.9205Z" fill="black"/>
<path d="M144.803 85.6638C144.857 85.6225 144.933 85.6085 145.01 85.5945C145.014 85.6216 145.017 85.6487 145.021 85.6759C144.956 85.6809 144.891 85.686 144.803 85.6638Z" fill="black"/>
<path d="M158.698 89.0738C158.68 89.1499 158.658 89.19 158.636 89.23C158.617 89.1906 158.573 89.1421 158.584 89.114C158.597 89.0796 158.655 89.0624 158.698 89.0738Z" fill="black"/>
<path d="M158.869 88.7137C158.888 88.6372 158.909 88.5967 158.93 88.5562C158.95 88.596 158.995 88.6455 158.985 88.6733C158.971 88.7081 158.912 88.725 158.869 88.7137Z" fill="black"/>
<path d="M159.276 88.2066C159.258 88.2827 159.236 88.3228 159.215 88.3628C159.195 88.3234 159.151 88.2749 159.162 88.2468C159.175 88.2125 159.233 88.1952 159.276 88.2066Z" fill="black"/>
<path d="M159.563 87.841C159.519 87.8545 159.456 87.8367 159.451 87.8096C159.446 87.773 159.486 87.7292 159.506 87.6885C159.527 87.7275 159.548 87.7665 159.563 87.841Z" fill="black"/>
<path d="M159.827 87.2822C159.83 87.3708 159.809 87.4336 159.788 87.4964C159.771 87.4797 159.738 87.459 159.74 87.4471C159.756 87.3824 159.78 87.3198 159.827 87.2822Z" fill="black"/>
<path d="M160.143 86.9058C160.125 86.9819 160.104 87.022 160.082 87.0621C160.062 87.0226 160.019 86.9741 160.029 86.946C160.042 86.9117 160.1 86.8944 160.143 86.9058Z" fill="black"/>
<path d="M160.318 86.4769C160.361 86.4635 160.426 86.4816 160.429 86.5084C160.435 86.545 160.394 86.5882 160.373 86.6285C160.353 86.5898 160.332 86.551 160.318 86.4769Z" fill="black"/>
<path d="M160.694 85.9812C160.698 86.0698 160.677 86.1326 160.656 86.1954C160.639 86.1787 160.605 86.158 160.608 86.1461C160.623 86.0813 160.648 86.0188 160.694 85.9812Z" fill="black"/>
<path d="M160.983 85.5476C160.987 85.6362 160.966 85.699 160.945 85.7618C160.928 85.7451 160.894 85.7244 160.897 85.7125C160.912 85.6477 160.937 85.5852 160.983 85.5476Z" fill="black"/>
<path d="M144.429 85.2964C144.505 85.3148 144.546 85.3359 144.586 85.357C144.546 85.3773 144.497 85.4224 144.469 85.4116C144.434 85.3981 144.417 85.3387 144.429 85.2964Z" fill="black"/>
<path d="M161.209 85.3018C161.197 85.2121 161.211 85.1477 161.225 85.0833C161.251 85.0903 161.278 85.0973 161.304 85.1043C161.281 85.1786 161.257 85.2528 161.209 85.3018Z" fill="black"/>
<path d="M143.936 85.0857C143.989 85.0444 144.066 85.0304 144.143 85.0164C144.146 85.0435 144.15 85.0706 144.154 85.0977C144.089 85.1028 144.024 85.1079 143.936 85.0857Z" fill="black"/>
<path d="M143.692 84.8084C143.604 84.8122 143.541 84.7911 143.478 84.77C143.495 84.7531 143.515 84.7192 143.527 84.7221C143.592 84.7376 143.655 84.7621 143.692 84.8084Z" fill="black"/>
<path d="M158.002 90.0147C158.021 89.9382 158.042 89.8977 158.063 89.8572C158.083 89.897 158.128 89.9465 158.117 89.9743C158.104 90.0091 158.044 90.026 158.002 90.0147Z" fill="black"/>
<path d="M161.587 84.8058C161.543 84.8193 161.479 84.8016 161.475 84.7745C161.469 84.7379 161.509 84.694 161.53 84.6533C161.551 84.6923 161.572 84.7314 161.587 84.8058Z" fill="black"/>
<path d="M161.878 84.304C161.86 84.3801 161.838 84.4202 161.816 84.4602C161.797 84.4208 161.753 84.3723 161.764 84.3442C161.776 84.3099 161.835 84.2926 161.878 84.304Z" fill="black"/>
<path d="M143.259 84.5194C143.17 84.5231 143.107 84.502 143.044 84.4809C143.061 84.464 143.082 84.4302 143.094 84.433C143.159 84.4485 143.221 84.4731 143.259 84.5194Z" fill="black"/>
<path d="M156.73 91.9752C156.732 91.9324 156.755 91.9083 156.778 91.8843C156.769 91.9209 156.76 91.9575 156.73 91.9752Z" fill="black"/>
<path d="M157.752 90.3818C157.755 90.3388 157.777 90.3155 157.799 90.2922C157.789 90.3287 157.78 90.3651 157.752 90.3818Z" fill="black"/>
<path d="M153.968 63.1398C153.954 63.0793 153.978 62.9939 154.042 62.8833C154.056 62.9437 154.031 63.0293 153.968 63.1398Z" fill="black"/>
<path d="M164.679 80.1232C164.682 80.0803 164.705 80.0563 164.728 80.0322C164.718 80.0688 164.709 80.1054 164.679 80.1232Z" fill="black"/>
<path d="M141.985 83.6077C141.964 83.6335 141.927 83.637 141.889 83.6406C141.916 83.6222 141.942 83.6038 141.985 83.6077Z" fill="black"/>
<path d="M123.52 33.0032C123.358 32.9219 123.197 32.8405 123.033 32.7024C123.029 32.6456 123.067 32.6172 123.067 32.6172C123.228 32.6985 123.389 32.7799 123.554 32.918C123.557 32.9748 123.52 33.0032 123.52 33.0032Z" fill="black"/>
<path d="M128.291 36.183C128.129 36.1017 127.967 36.0203 127.803 35.8821C127.799 35.8253 127.837 35.7969 127.837 35.7969C127.998 35.8782 128.159 35.9596 128.324 36.0977C128.327 36.1545 128.291 36.183 128.291 36.183Z" fill="black"/>
<path d="M118.677 29.6189C118.825 29.7171 118.973 29.8153 119.121 29.9757C119.122 30.0378 119.092 30.0752 119.092 30.0752C118.945 29.977 118.797 29.8788 118.648 29.7185C118.648 29.6564 118.677 29.6189 118.677 29.6189Z" fill="black"/>
<path d="M144.091 28.8071C144.26 28.8733 144.415 28.9883 144.557 29.1524C144.388 29.0862 144.233 28.9712 144.091 28.8071Z" fill="black"/>
<path d="M119.978 30.4861C120.126 30.5844 120.274 30.6827 120.422 30.8431C120.423 30.9052 120.393 30.9424 120.393 30.9424C120.246 30.8442 120.098 30.746 119.949 30.5853C119.949 30.5228 119.978 30.4861 119.978 30.4861Z" fill="black"/>
<path d="M117.792 29.2079C117.641 29.1035 117.491 28.9992 117.323 28.8531C117.305 28.8113 117.342 28.7831 117.36 28.7683C117.525 28.8512 117.672 28.9488 117.82 29.1085C117.821 29.1705 117.792 29.2079 117.792 29.2079Z" fill="black"/>
<path d="M126.193 34.678C126.324 34.747 126.455 34.8161 126.59 34.9417C126.593 34.9983 126.556 35.0268 126.556 35.0268C126.426 34.9643 126.295 34.9017 126.164 34.7771C126.164 34.7151 126.193 34.678 126.193 34.678Z" fill="black"/>
<path d="M138.024 42.4521C137.888 42.4343 137.734 42.372 137.59 42.2554C137.735 42.2699 137.871 42.3388 138.024 42.4521Z" fill="black"/>
<path d="M125.689 34.4485C125.559 34.386 125.428 34.3236 125.297 34.199C125.296 34.1369 125.326 34.0996 125.326 34.0996C125.457 34.1687 125.588 34.2377 125.723 34.3634C125.726 34.4199 125.689 34.4485 125.689 34.4485Z" fill="black"/>
<path d="M129.157 36.761C129.027 36.6985 128.897 36.636 128.766 36.5114C128.765 36.4494 128.795 36.4124 128.795 36.4124C128.926 36.4814 129.057 36.5505 129.191 36.6761C129.194 36.7326 129.157 36.761 129.157 36.761Z" fill="black"/>
<path d="M125.283 34.1562C125.135 34.1085 125.001 34.0416 124.865 33.9112C124.863 33.8476 124.893 33.8105 124.893 33.8105C125.023 33.8795 125.154 33.9484 125.305 34.0585C125.326 34.0996 125.296 34.1369 125.283 34.1562Z" fill="black"/>
<path d="M128.751 36.4685C128.602 36.4151 128.466 36.3426 128.31 36.2265C128.291 36.1829 128.327 36.1544 128.345 36.1392C128.493 36.1926 128.623 36.2613 128.774 36.3711C128.795 36.4122 128.765 36.4493 128.751 36.4685Z" fill="black"/>
<path d="M136.723 41.5849C136.587 41.5671 136.434 41.5048 136.289 41.3882C136.434 41.4027 136.57 41.4716 136.723 41.5849Z" fill="black"/>
<path d="M137.156 41.874C137.021 41.8562 136.867 41.7939 136.723 41.6772C136.868 41.6918 137.003 41.7606 137.156 41.874Z" fill="black"/>
<path d="M137.59 42.1631C137.454 42.1452 137.301 42.0829 137.157 41.9663C137.301 41.9809 137.437 42.0497 137.59 42.1631Z" fill="black"/>
<path d="M122.653 32.4249C122.522 32.3649 122.392 32.3049 122.262 32.2449C122.284 32.1989 122.306 32.1529 122.328 32.1069C122.445 32.1649 122.563 32.2228 122.685 32.3387C122.69 32.3966 122.653 32.4249 122.653 32.4249Z" fill="black"/>
<path d="M123.575 32.9595C123.724 33.0131 123.854 33.0819 123.988 33.2072C123.991 33.2638 123.954 33.2921 123.954 33.2921C123.821 33.2237 123.689 33.1554 123.538 33.0451C123.52 33.0031 123.557 32.9747 123.575 32.9595Z" fill="black"/>
<path d="M124.388 33.5814C124.255 33.513 124.123 33.4446 123.972 33.3341C123.953 33.2921 123.991 33.2638 124.009 33.2485C124.157 33.3021 124.288 33.371 124.422 33.4963C124.425 33.5528 124.388 33.5814 124.388 33.5814Z" fill="black"/>
<path d="M124.849 33.8669C124.699 33.8135 124.563 33.741 124.408 33.6249C124.388 33.5813 124.425 33.5528 124.443 33.5376C124.59 33.5911 124.721 33.6598 124.872 33.7696C124.893 33.8107 124.863 33.8477 124.849 33.8669Z" fill="black"/>
<path d="M127.422 35.6047C127.292 35.5422 127.162 35.4797 127.031 35.3552C127.031 35.2932 127.061 35.2561 127.061 35.2561C127.192 35.3252 127.323 35.3943 127.457 35.5199C127.46 35.5764 127.422 35.6047 127.422 35.6047Z" fill="black"/>
<path d="M126.15 34.7341C126 34.6807 125.864 34.6082 125.709 34.4921C125.689 34.4485 125.726 34.42 125.743 34.4048C125.891 34.4583 126.022 34.527 126.173 34.6368C126.193 34.6778 126.164 34.7149 126.15 34.7341Z" fill="black"/>
<path d="M127.017 35.3122C126.867 35.2588 126.731 35.1863 126.576 35.0702C126.556 35.0267 126.593 34.9981 126.611 34.9829C126.759 35.0364 126.889 35.1051 127.04 35.2149C127.061 35.256 127.031 35.2931 127.017 35.3122Z" fill="black"/>
<path d="M138.457 42.7412C138.321 42.7234 138.168 42.661 138.024 42.5444C138.169 42.559 138.304 42.6278 138.457 42.7412Z" fill="black"/>
<path d="M119.136 30.0186C119.283 30.0661 119.417 30.1328 119.553 30.2632C119.556 30.3269 119.526 30.3643 119.526 30.3643C119.397 30.2932 119.268 30.2221 119.116 30.1131C119.092 30.0752 119.122 30.0378 119.136 30.0186Z" fill="black"/>
<path d="M145.423 29.8137C145.557 29.8349 145.71 29.8974 145.854 30.0142C145.71 29.9974 145.576 29.9262 145.423 29.8137Z" fill="black"/>
<path d="M129.516 36.9969C129.396 36.9562 129.295 36.9003 129.175 36.8027C129.157 36.761 129.194 36.7327 129.212 36.7175C129.332 36.7582 129.433 36.8141 129.553 36.9116C129.571 36.9533 129.534 36.9817 129.516 36.9969Z" fill="black"/>
<path d="M144.555 29.2356C144.689 29.2568 144.843 29.3193 144.987 29.4361C144.843 29.4193 144.709 29.3481 144.555 29.2356Z" fill="black"/>
<path d="M144.989 29.5247C145.123 29.5458 145.277 29.6083 145.42 29.7251C145.277 29.7083 145.143 29.6371 144.989 29.5247Z" fill="black"/>
<path d="M142.821 28.0793C142.955 28.1005 143.108 28.163 143.252 28.2798C143.109 28.263 142.975 28.1918 142.821 28.0793Z" fill="black"/>
<path d="M117.835 29.1514C117.983 29.1989 118.116 29.2657 118.252 29.3964C118.254 29.4604 118.225 29.4971 118.225 29.4971C118.096 29.426 117.967 29.3549 117.815 29.2459C117.792 29.208 117.821 29.1706 117.835 29.1514Z" fill="black"/>
<path d="M127.781 35.8404C127.662 35.7998 127.56 35.7439 127.441 35.6462C127.423 35.6045 127.46 35.5762 127.478 35.561C127.597 35.6017 127.699 35.6576 127.818 35.7551C127.837 35.7968 127.799 35.8252 127.781 35.8404Z" fill="black"/>
<path d="M143.255 28.3684C143.388 28.3896 143.542 28.4521 143.686 28.5689C143.542 28.5521 143.408 28.4809 143.255 28.3684Z" fill="black"/>
<path d="M138.775 43.0262C138.656 43.0106 138.549 42.9449 138.455 42.8291C138.574 42.8447 138.68 42.9104 138.775 43.0262Z" fill="black"/>
<path d="M146.29 30.3918C146.424 30.413 146.577 30.4755 146.721 30.5923C146.578 30.5755 146.444 30.5043 146.29 30.3918Z" fill="black"/>
<path d="M121.261 31.5206C121.131 31.4491 121.001 31.3776 120.866 31.2531C120.861 31.2 120.897 31.1716 120.897 31.1716C121.028 31.2341 121.158 31.2965 121.289 31.4211C121.29 31.4832 121.261 31.5206 121.261 31.5206Z" fill="black"/>
<path d="M120.437 30.886C120.587 30.9394 120.722 31.0119 120.878 31.128C120.897 31.1715 120.861 31.1999 120.843 31.2147C120.696 31.159 120.568 31.0884 120.416 30.9801C120.393 30.9423 120.423 30.9051 120.437 30.886Z" fill="black"/>
<path d="M145.856 30.1028C145.99 30.124 146.144 30.1864 146.288 30.3033C146.144 30.2864 146.01 30.2153 145.856 30.1028Z" fill="black"/>
<path d="M123.011 32.6607C122.892 32.6201 122.79 32.5642 122.671 32.4666C122.653 32.4248 122.69 32.3965 122.708 32.3813C122.827 32.422 122.929 32.4779 123.049 32.5754C123.067 32.6171 123.029 32.6455 123.011 32.6607Z" fill="black"/>
<path d="M121.304 31.4639C121.452 31.5115 121.585 31.5783 121.721 31.7088C121.724 31.7723 121.694 31.8097 121.694 31.8097C121.565 31.7385 121.436 31.6674 121.284 31.5584C121.261 31.5205 121.29 31.4831 121.304 31.4639Z" fill="black"/>
<path d="M118.634 29.6757C118.505 29.6547 118.391 29.6145 118.251 29.5357C118.225 29.4971 118.254 29.4603 118.268 29.4407C118.397 29.4613 118.512 29.5016 118.651 29.5804C118.677 29.6189 118.648 29.6564 118.634 29.6757Z" fill="black"/>
<path d="M142.571 27.9072C142.636 27.9127 142.738 27.9339 142.824 28.0001C142.742 28.0044 142.674 27.9637 142.571 27.9072Z" fill="black"/>
<path d="M143.694 28.6608C143.799 28.6362 143.93 28.6561 144.087 28.7205C143.981 28.7451 143.851 28.7252 143.694 28.6608Z" fill="black"/>
<path d="M119.569 30.3076C119.698 30.3286 119.812 30.3688 119.952 30.4476C119.978 30.4862 119.949 30.523 119.935 30.5426C119.806 30.522 119.692 30.4817 119.552 30.4029C119.526 30.3644 119.556 30.3269 119.569 30.3076Z" fill="black"/>
<path d="M121.738 31.7532C121.854 31.7701 121.956 31.8063 122.058 31.8424C122.055 31.8672 122.052 31.8919 122.049 31.9166C121.949 31.9069 121.848 31.8972 121.721 31.8486C121.694 31.8097 121.724 31.7724 121.738 31.7532Z" fill="black"/>
<path d="M146.723 30.6799C146.786 30.6565 146.868 30.673 146.971 30.7309C146.908 30.7548 146.825 30.7373 146.723 30.6799Z" fill="black"/>
<path d="M138.081 25.1838C138.049 25.2498 137.997 25.3017 137.946 25.3537C137.949 25.2957 137.953 25.2376 137.991 25.1601C138.025 25.1405 138.062 25.1699 138.081 25.1838Z" fill="black"/>
<path d="M151.972 34.2514C151.928 34.2496 151.914 34.1794 151.911 34.1438C151.99 34.125 152.072 34.1418 152.174 34.1998C152.135 34.2451 152.076 34.2491 151.972 34.2514Z" fill="black"/>
<path d="M114.754 26.9846C114.406 26.8455 114.019 26.6927 113.678 26.4687C111.341 24.9301 109.012 23.3778 106.684 21.8247C106.551 21.7357 106.448 21.6003 106.355 21.4365C107.587 22.1597 108.806 22.9153 109.999 23.7104C111.589 24.7701 113.158 25.8606 114.754 26.9846Z" fill="black"/>
<path d="M105.501 20.767C105.337 20.7503 105.153 20.6849 104.95 20.5708C105.114 20.5874 105.298 20.6528 105.501 20.767Z" fill="black"/>
<path d="M116.056 27.853C115.912 27.8359 115.751 27.7735 115.61 27.6562C115.766 27.6701 115.903 27.7389 116.056 27.853Z" fill="black"/>
<path d="M106.372 21.3488C106.228 21.3318 106.067 21.2694 105.926 21.1521C106.082 21.166 106.218 21.2347 106.372 21.3488Z" fill="black"/>
<path d="M115.622 27.5639C115.478 27.5469 115.318 27.4845 115.176 27.3672C115.332 27.3811 115.469 27.4498 115.622 27.5639Z" fill="black"/>
<path d="M115.189 27.2749C115.045 27.2578 114.884 27.1954 114.743 27.0781C114.899 27.092 115.035 27.1608 115.189 27.2749Z" fill="black"/>
<path d="M105.938 21.0598C105.794 21.0427 105.634 20.9803 105.492 20.863C105.648 20.8769 105.785 20.9457 105.938 21.0598Z" fill="black"/>
<path d="M138.858 23.8591C138.841 23.996 138.779 24.15 138.662 24.2929C138.676 24.1467 138.745 24.0115 138.858 23.8591Z" fill="black"/>
<path d="M139.439 22.9934C139.419 23.1287 139.357 23.2828 139.24 23.4257C139.256 23.2804 139.326 23.1463 139.439 22.9934Z" fill="black"/>
<path d="M139.15 23.427C139.13 23.5623 139.068 23.7164 138.951 23.8593C138.967 23.714 139.037 23.5799 139.15 23.427Z" fill="black"/>
<path d="M139.728 22.5598C139.708 22.6952 139.646 22.8492 139.529 22.9921C139.545 22.8468 139.615 22.7127 139.728 22.5598Z" fill="black"/>
<path d="M140.017 22.126C139.997 22.2613 139.935 22.4154 139.818 22.5583C139.834 22.413 139.905 22.2788 140.017 22.126Z" fill="black"/>
<path d="M140.306 21.6924C140.286 21.8277 140.224 21.9818 140.107 22.1247C140.123 21.9794 140.194 21.8452 140.306 21.6924Z" fill="black"/>
<path d="M141.762 19.4707C141.736 19.6078 141.678 19.7838 141.559 19.953C141.576 19.8007 141.653 19.6551 141.762 19.4707Z" fill="black"/>
<path d="M141.462 19.958C141.442 20.0933 141.38 20.2474 141.264 20.3903C141.28 20.245 141.35 20.1109 141.462 19.958Z" fill="black"/>
<path d="M140.595 21.2588C140.575 21.3941 140.513 21.5482 140.396 21.6911C140.412 21.5458 140.483 21.4117 140.595 21.2588Z" fill="black"/>
<path d="M140.884 20.8252C140.864 20.9605 140.802 21.1146 140.686 21.2575C140.701 21.1122 140.772 20.9781 140.884 20.8252Z" fill="black"/>
<path d="M141.173 20.3916C141.153 20.5269 141.091 20.681 140.975 20.8239C140.991 20.6786 141.061 20.5445 141.173 20.3916Z" fill="black"/>
</svg>
